%TF.GenerationSoftware,KiCad,Pcbnew,(5.1.8)-1*%
%TF.CreationDate,2020-12-11T14:55:26-05:00*%
%TF.ProjectId,kevins-pcb-numpad,6b657669-6e73-42d7-9063-622d6e756d70,rev?*%
%TF.SameCoordinates,Original*%
%TF.FileFunction,Copper,L1,Top*%
%TF.FilePolarity,Positive*%
%FSLAX46Y46*%
G04 Gerber Fmt 4.6, Leading zero omitted, Abs format (unit mm)*
G04 Created by KiCad (PCBNEW (5.1.8)-1) date 2020-12-11 14:55:26*
%MOMM*%
%LPD*%
G01*
G04 APERTURE LIST*
%TA.AperFunction,ComponentPad*%
%ADD10O,1.700000X2.700000*%
%TD*%
%TA.AperFunction,ComponentPad*%
%ADD11R,1.905000X1.905000*%
%TD*%
%TA.AperFunction,ComponentPad*%
%ADD12C,1.905000*%
%TD*%
%TA.AperFunction,ComponentPad*%
%ADD13C,2.250000*%
%TD*%
%TA.AperFunction,ViaPad*%
%ADD14C,0.800000*%
%TD*%
%TA.AperFunction,Conductor*%
%ADD15C,0.381000*%
%TD*%
%TA.AperFunction,Conductor*%
%ADD16C,0.254000*%
%TD*%
G04 APERTURE END LIST*
D10*
%TO.P,USB1,6*%
%TO.N,Net-(USB1-Pad6)*%
X40006250Y-81756250D03*
X47306250Y-81756250D03*
X47306250Y-86256250D03*
X40006250Y-86256250D03*
%TD*%
D11*
%TO.P,MX4,4*%
%TO.N,N/C*%
X109220000Y-113030000D03*
D12*
%TO.P,MX4,3*%
X106680000Y-113030000D03*
D13*
%TO.P,MX4,1*%
%TO.N,COL1*%
X105450000Y-103950000D03*
%TA.AperFunction,ComponentPad*%
G36*
G01*
X103388688Y-106247350D02*
X103388683Y-106247345D01*
G75*
G02*
X103302655Y-104658683I751317J837345D01*
G01*
X104612657Y-103198683D01*
G75*
G02*
X106201319Y-103112655I837345J-751317D01*
G01*
X106201319Y-103112655D01*
G75*
G02*
X106287347Y-104701317I-751317J-837345D01*
G01*
X104977345Y-106161317D01*
G75*
G02*
X103388683Y-106247345I-837345J751317D01*
G01*
G37*
%TD.AperFunction*%
%TO.P,MX4,2*%
%TO.N,Net-(D4-Pad2)*%
X110490000Y-102870000D03*
%TA.AperFunction,ComponentPad*%
G36*
G01*
X110373483Y-104572395D02*
X110372597Y-104572334D01*
G75*
G02*
X109327666Y-103372597I77403J1122334D01*
G01*
X109367666Y-102792597D01*
G75*
G02*
X110567403Y-101747666I1122334J-77403D01*
G01*
X110567403Y-101747666D01*
G75*
G02*
X111612334Y-102947403I-77403J-1122334D01*
G01*
X111572334Y-103527403D01*
G75*
G02*
X110372597Y-104572334I-1122334J77403D01*
G01*
G37*
%TD.AperFunction*%
%TD*%
%TO.P,MX3,2*%
%TO.N,Net-(D3-Pad2)*%
%TA.AperFunction,ComponentPad*%
G36*
G01*
X110373483Y-85522395D02*
X110372597Y-85522334D01*
G75*
G02*
X109327666Y-84322597I77403J1122334D01*
G01*
X109367666Y-83742597D01*
G75*
G02*
X110567403Y-82697666I1122334J-77403D01*
G01*
X110567403Y-82697666D01*
G75*
G02*
X111612334Y-83897403I-77403J-1122334D01*
G01*
X111572334Y-84477403D01*
G75*
G02*
X110372597Y-85522334I-1122334J77403D01*
G01*
G37*
%TD.AperFunction*%
X110490000Y-83820000D03*
%TO.P,MX3,1*%
%TO.N,COL1*%
%TA.AperFunction,ComponentPad*%
G36*
G01*
X103388688Y-87197350D02*
X103388683Y-87197345D01*
G75*
G02*
X103302655Y-85608683I751317J837345D01*
G01*
X104612657Y-84148683D01*
G75*
G02*
X106201319Y-84062655I837345J-751317D01*
G01*
X106201319Y-84062655D01*
G75*
G02*
X106287347Y-85651317I-751317J-837345D01*
G01*
X104977345Y-87111317D01*
G75*
G02*
X103388683Y-87197345I-837345J751317D01*
G01*
G37*
%TD.AperFunction*%
X105450000Y-84900000D03*
D12*
%TO.P,MX3,3*%
%TO.N,N/C*%
X106680000Y-93980000D03*
D11*
%TO.P,MX3,4*%
X109220000Y-93980000D03*
%TD*%
%TO.P,MX2,4*%
%TO.N,N/C*%
X90170000Y-113030000D03*
D12*
%TO.P,MX2,3*%
X87630000Y-113030000D03*
D13*
%TO.P,MX2,1*%
%TO.N,COL0*%
X86400000Y-103950000D03*
%TA.AperFunction,ComponentPad*%
G36*
G01*
X84338688Y-106247350D02*
X84338683Y-106247345D01*
G75*
G02*
X84252655Y-104658683I751317J837345D01*
G01*
X85562657Y-103198683D01*
G75*
G02*
X87151319Y-103112655I837345J-751317D01*
G01*
X87151319Y-103112655D01*
G75*
G02*
X87237347Y-104701317I-751317J-837345D01*
G01*
X85927345Y-106161317D01*
G75*
G02*
X84338683Y-106247345I-837345J751317D01*
G01*
G37*
%TD.AperFunction*%
%TO.P,MX2,2*%
%TO.N,Net-(D2-Pad2)*%
X91440000Y-102870000D03*
%TA.AperFunction,ComponentPad*%
G36*
G01*
X91323483Y-104572395D02*
X91322597Y-104572334D01*
G75*
G02*
X90277666Y-103372597I77403J1122334D01*
G01*
X90317666Y-102792597D01*
G75*
G02*
X91517403Y-101747666I1122334J-77403D01*
G01*
X91517403Y-101747666D01*
G75*
G02*
X92562334Y-102947403I-77403J-1122334D01*
G01*
X92522334Y-103527403D01*
G75*
G02*
X91322597Y-104572334I-1122334J77403D01*
G01*
G37*
%TD.AperFunction*%
%TD*%
D11*
%TO.P,MX1,4*%
%TO.N,N/C*%
X90170000Y-93980000D03*
D12*
%TO.P,MX1,3*%
X87630000Y-93980000D03*
D13*
%TO.P,MX1,1*%
%TO.N,COL0*%
X86400000Y-84900000D03*
%TA.AperFunction,ComponentPad*%
G36*
G01*
X84338688Y-87197350D02*
X84338683Y-87197345D01*
G75*
G02*
X84252655Y-85608683I751317J837345D01*
G01*
X85562657Y-84148683D01*
G75*
G02*
X87151319Y-84062655I837345J-751317D01*
G01*
X87151319Y-84062655D01*
G75*
G02*
X87237347Y-85651317I-751317J-837345D01*
G01*
X85927345Y-87111317D01*
G75*
G02*
X84338683Y-87197345I-837345J751317D01*
G01*
G37*
%TD.AperFunction*%
%TO.P,MX1,2*%
%TO.N,Net-(D1-Pad2)*%
X91440000Y-83820000D03*
%TA.AperFunction,ComponentPad*%
G36*
G01*
X91323483Y-85522395D02*
X91322597Y-85522334D01*
G75*
G02*
X90277666Y-84322597I77403J1122334D01*
G01*
X90317666Y-83742597D01*
G75*
G02*
X91517403Y-82697666I1122334J-77403D01*
G01*
X91517403Y-82697666D01*
G75*
G02*
X92562334Y-83897403I-77403J-1122334D01*
G01*
X92522334Y-84477403D01*
G75*
G02*
X91322597Y-85522334I-1122334J77403D01*
G01*
G37*
%TD.AperFunction*%
%TD*%
D14*
%TO.N,GND*%
X50800000Y-104140000D03*
X50800000Y-97790000D03*
X52070000Y-93980000D03*
X49530000Y-90170000D03*
%TO.N,+5V*%
X57531000Y-101981000D03*
X57537250Y-97910750D03*
%TO.N,Net-(R3-Pad2)*%
X46228000Y-103632000D03*
X46282500Y-98098500D03*
%TD*%
D15*
%TO.N,GND*%
X50800000Y-104140000D02*
X50800000Y-97790000D01*
X49530000Y-91440000D02*
X49530000Y-90170000D01*
X52070000Y-93980000D02*
X49530000Y-91440000D01*
%TO.N,+5V*%
X57531000Y-97917000D02*
X57537250Y-97910750D01*
X57531000Y-101981000D02*
X57531000Y-97917000D01*
D16*
%TO.N,COL0*%
X86106000Y-87376000D02*
X85090000Y-86360000D01*
X86106000Y-103656000D02*
X86106000Y-87376000D01*
X86400000Y-103950000D02*
X86106000Y-103656000D01*
%TO.N,COL1*%
X104140000Y-86360000D02*
X104140000Y-105410000D01*
%TO.N,Net-(R3-Pad2)*%
X46228000Y-98153000D02*
X46282500Y-98098500D01*
X46228000Y-103632000D02*
X46228000Y-98153000D01*
%TD*%
M02*
