M48
; DRILL file {KiCad (5.1.8)-1} date 12/11/20 14:55:32
; FORMAT={-:-/ absolute / inch / decimal}
; #@! TF.CreationDate,2020-12-11T14:55:32-05:00
; #@! TF.GenerationSoftware,Kicad,Pcbnew,(5.1.8)-1
; #@! TF.FileFunction,Plated,1,2,PTH
FMAT,2
INCH
T1C0.0157
T2C0.0276
T3C0.0409
T4C0.0579
%
G90
G05
T1
X1.82Y-4.08
X1.8221Y-3.8621
X1.95Y-3.55
X2.0Y-3.85
X2.0Y-4.1
X2.05Y-3.7
X2.265Y-4.015
X2.2652Y-3.8548
T3
X4.2Y-3.7
X4.3Y-3.7
X3.45Y-4.45
X3.55Y-4.45
X4.2Y-4.45
X4.3Y-4.45
X3.45Y-3.7
X3.55Y-3.7
T4
X4.1Y-4.15
X4.1516Y-4.0925
X4.3484Y-4.0728
X4.35Y-4.05
X3.35Y-3.4
X3.4016Y-3.3425
X3.5984Y-3.3228
X3.6Y-3.3
X4.1Y-3.4
X4.1516Y-3.3425
X4.3484Y-3.3228
X4.35Y-3.3
X3.35Y-4.15
X3.4016Y-4.0925
X3.5984Y-4.0728
X3.6Y-4.05
T2
G00X1.575Y-3.1951
M15
G01X1.575Y-3.2424
M16
G05
G00X1.575Y-3.3723
M15
G01X1.575Y-3.4195
M16
G05
G00X1.8625Y-3.1951
M15
G01X1.8625Y-3.2424
M16
G05
G00X1.8625Y-3.3723
M15
G01X1.8625Y-3.4195
M16
G05
T0
M30
