%TF.GenerationSoftware,KiCad,Pcbnew,(5.1.8)-1*%
%TF.CreationDate,2020-12-11T14:52:39-05:00*%
%TF.ProjectId,kevins-pcb-numpad,6b657669-6e73-42d7-9063-622d6e756d70,rev?*%
%TF.SameCoordinates,Original*%
%TF.FileFunction,Legend,Bot*%
%TF.FilePolarity,Positive*%
%FSLAX46Y46*%
G04 Gerber Fmt 4.6, Leading zero omitted, Abs format (unit mm)*
G04 Created by KiCad (PCBNEW (5.1.8)-1) date 2020-12-11 14:52:39*
%MOMM*%
%LPD*%
G01*
G04 APERTURE LIST*
%ADD10C,0.150000*%
%ADD11C,0.120000*%
%ADD12R,1.800000X1.100000*%
%ADD13R,1.400000X1.200000*%
%ADD14O,1.700000X2.700000*%
%ADD15R,0.500000X2.250000*%
%ADD16R,0.550000X1.500000*%
%ADD17R,1.500000X0.550000*%
%ADD18C,1.750000*%
%ADD19R,1.905000X1.905000*%
%ADD20C,1.905000*%
%ADD21C,2.250000*%
%ADD22C,3.987800*%
%ADD23R,1.200000X0.900000*%
G04 APERTURE END LIST*
D10*
%TO.C,SW1*%
X39862000Y-105537000D02*
G75*
G03*
X39862000Y-105537000I-1000000J0D01*
G01*
X41462000Y-108137000D02*
X41462000Y-102937000D01*
X36262000Y-108137000D02*
X41462000Y-108137000D01*
X36262000Y-102937000D02*
X36262000Y-108137000D01*
X41462000Y-102937000D02*
X36262000Y-102937000D01*
D11*
%TO.C,Y1*%
X66971750Y-85687000D02*
X66971750Y-88987000D01*
X66971750Y-88987000D02*
X62971750Y-88987000D01*
D10*
%TO.C,USB1*%
X39806250Y-87206250D02*
X47506250Y-87206250D01*
X47506250Y-81756250D02*
X47506250Y-87206250D01*
X39806250Y-81756250D02*
X39806250Y-87206250D01*
%TO.C,U1*%
X59722000Y-103885750D02*
X59722000Y-103310750D01*
X70072000Y-103885750D02*
X70072000Y-103210750D01*
X70072000Y-93535750D02*
X70072000Y-94210750D01*
X59722000Y-93535750D02*
X59722000Y-94210750D01*
X59722000Y-103885750D02*
X60397000Y-103885750D01*
X59722000Y-93535750D02*
X60397000Y-93535750D01*
X70072000Y-93535750D02*
X69397000Y-93535750D01*
X70072000Y-103885750D02*
X69397000Y-103885750D01*
X59722000Y-103310750D02*
X58447000Y-103310750D01*
D11*
%TO.C,R4*%
X75284000Y-103755564D02*
X75284000Y-103301436D01*
X73814000Y-103755564D02*
X73814000Y-103301436D01*
%TO.C,R3*%
X54329000Y-90347436D02*
X54329000Y-90801564D01*
X52859000Y-90347436D02*
X52859000Y-90801564D01*
%TO.C,R2*%
X45439000Y-92071564D02*
X45439000Y-91617436D01*
X43969000Y-92071564D02*
X43969000Y-91617436D01*
%TO.C,R1*%
X42264000Y-92071564D02*
X42264000Y-91617436D01*
X40794000Y-92071564D02*
X40794000Y-91617436D01*
%TO.C,F1*%
X39645000Y-95474064D02*
X39645000Y-94269936D01*
X37825000Y-95474064D02*
X37825000Y-94269936D01*
%TO.C,D4*%
X116443000Y-110072000D02*
X114443000Y-110072000D01*
X114443000Y-110072000D02*
X114443000Y-106172000D01*
X116443000Y-110072000D02*
X116443000Y-106172000D01*
%TO.C,D3*%
X116443000Y-91022000D02*
X114443000Y-91022000D01*
X114443000Y-91022000D02*
X114443000Y-87122000D01*
X116443000Y-91022000D02*
X116443000Y-87122000D01*
%TO.C,D2*%
X97393000Y-109945000D02*
X95393000Y-109945000D01*
X95393000Y-109945000D02*
X95393000Y-106045000D01*
X97393000Y-109945000D02*
X97393000Y-106045000D01*
%TO.C,D1*%
X97393000Y-91022000D02*
X95393000Y-91022000D01*
X95393000Y-91022000D02*
X95393000Y-87122000D01*
X97393000Y-91022000D02*
X97393000Y-87122000D01*
%TO.C,C7*%
X61807498Y-109478750D02*
X62330002Y-109478750D01*
X61807498Y-108008750D02*
X62330002Y-108008750D01*
%TO.C,C6*%
X53433000Y-97782748D02*
X53433000Y-98305252D01*
X54903000Y-97782748D02*
X54903000Y-98305252D01*
%TO.C,C5*%
X75411000Y-95445252D02*
X75411000Y-94922748D01*
X73941000Y-95445252D02*
X73941000Y-94922748D01*
%TO.C,C4*%
X59590000Y-87048748D02*
X59590000Y-87571252D01*
X61060000Y-87048748D02*
X61060000Y-87571252D01*
%TO.C,C3*%
X70204000Y-87571252D02*
X70204000Y-87048748D01*
X68734000Y-87571252D02*
X68734000Y-87048748D01*
%TO.C,C2*%
X67886252Y-108008750D02*
X67363748Y-108008750D01*
X67886252Y-109478750D02*
X67363748Y-109478750D01*
%TO.C,C1*%
X57631000Y-90873252D02*
X57631000Y-90350748D01*
X56161000Y-90873252D02*
X56161000Y-90350748D01*
%TO.C,SW1*%
D10*
X40195333Y-110005761D02*
X40052476Y-110053380D01*
X39814380Y-110053380D01*
X39719142Y-110005761D01*
X39671523Y-109958142D01*
X39623904Y-109862904D01*
X39623904Y-109767666D01*
X39671523Y-109672428D01*
X39719142Y-109624809D01*
X39814380Y-109577190D01*
X40004857Y-109529571D01*
X40100095Y-109481952D01*
X40147714Y-109434333D01*
X40195333Y-109339095D01*
X40195333Y-109243857D01*
X40147714Y-109148619D01*
X40100095Y-109101000D01*
X40004857Y-109053380D01*
X39766761Y-109053380D01*
X39623904Y-109101000D01*
X39290571Y-109053380D02*
X39052476Y-110053380D01*
X38862000Y-109339095D01*
X38671523Y-110053380D01*
X38433428Y-109053380D01*
X37528666Y-110053380D02*
X38100095Y-110053380D01*
X37814380Y-110053380D02*
X37814380Y-109053380D01*
X37909619Y-109196238D01*
X38004857Y-109291476D01*
X38100095Y-109339095D01*
%TO.C,Y1*%
X65447940Y-84863190D02*
X65447940Y-85339380D01*
X65781273Y-84339380D02*
X65447940Y-84863190D01*
X65114607Y-84339380D01*
X64257464Y-85339380D02*
X64828892Y-85339380D01*
X64543178Y-85339380D02*
X64543178Y-84339380D01*
X64638416Y-84482238D01*
X64733654Y-84577476D01*
X64828892Y-84625095D01*
%TO.C,USB1*%
X45394345Y-83240630D02*
X45394345Y-84050154D01*
X45346726Y-84145392D01*
X45299107Y-84193011D01*
X45203869Y-84240630D01*
X45013392Y-84240630D01*
X44918154Y-84193011D01*
X44870535Y-84145392D01*
X44822916Y-84050154D01*
X44822916Y-83240630D01*
X44394345Y-84193011D02*
X44251488Y-84240630D01*
X44013392Y-84240630D01*
X43918154Y-84193011D01*
X43870535Y-84145392D01*
X43822916Y-84050154D01*
X43822916Y-83954916D01*
X43870535Y-83859678D01*
X43918154Y-83812059D01*
X44013392Y-83764440D01*
X44203869Y-83716821D01*
X44299107Y-83669202D01*
X44346726Y-83621583D01*
X44394345Y-83526345D01*
X44394345Y-83431107D01*
X44346726Y-83335869D01*
X44299107Y-83288250D01*
X44203869Y-83240630D01*
X43965773Y-83240630D01*
X43822916Y-83288250D01*
X43061011Y-83716821D02*
X42918154Y-83764440D01*
X42870535Y-83812059D01*
X42822916Y-83907297D01*
X42822916Y-84050154D01*
X42870535Y-84145392D01*
X42918154Y-84193011D01*
X43013392Y-84240630D01*
X43394345Y-84240630D01*
X43394345Y-83240630D01*
X43061011Y-83240630D01*
X42965773Y-83288250D01*
X42918154Y-83335869D01*
X42870535Y-83431107D01*
X42870535Y-83526345D01*
X42918154Y-83621583D01*
X42965773Y-83669202D01*
X43061011Y-83716821D01*
X43394345Y-83716821D01*
X41870535Y-84240630D02*
X42441964Y-84240630D01*
X42156250Y-84240630D02*
X42156250Y-83240630D01*
X42251488Y-83383488D01*
X42346726Y-83478726D01*
X42441964Y-83526345D01*
%TO.C,U1*%
X65658904Y-105613130D02*
X65658904Y-106422654D01*
X65611285Y-106517892D01*
X65563666Y-106565511D01*
X65468428Y-106613130D01*
X65277952Y-106613130D01*
X65182714Y-106565511D01*
X65135095Y-106517892D01*
X65087476Y-106422654D01*
X65087476Y-105613130D01*
X64087476Y-106613130D02*
X64658904Y-106613130D01*
X64373190Y-106613130D02*
X64373190Y-105613130D01*
X64468428Y-105755988D01*
X64563666Y-105851226D01*
X64658904Y-105898845D01*
%TO.C,R4*%
X76651380Y-103361833D02*
X76175190Y-103028500D01*
X76651380Y-102790404D02*
X75651380Y-102790404D01*
X75651380Y-103171357D01*
X75699000Y-103266595D01*
X75746619Y-103314214D01*
X75841857Y-103361833D01*
X75984714Y-103361833D01*
X76079952Y-103314214D01*
X76127571Y-103266595D01*
X76175190Y-103171357D01*
X76175190Y-102790404D01*
X75984714Y-104218976D02*
X76651380Y-104218976D01*
X75603761Y-103980880D02*
X76318047Y-103742785D01*
X76318047Y-104361833D01*
%TO.C,R3*%
X52396380Y-90407833D02*
X51920190Y-90074500D01*
X52396380Y-89836404D02*
X51396380Y-89836404D01*
X51396380Y-90217357D01*
X51444000Y-90312595D01*
X51491619Y-90360214D01*
X51586857Y-90407833D01*
X51729714Y-90407833D01*
X51824952Y-90360214D01*
X51872571Y-90312595D01*
X51920190Y-90217357D01*
X51920190Y-89836404D01*
X51396380Y-90741166D02*
X51396380Y-91360214D01*
X51777333Y-91026880D01*
X51777333Y-91169738D01*
X51824952Y-91264976D01*
X51872571Y-91312595D01*
X51967809Y-91360214D01*
X52205904Y-91360214D01*
X52301142Y-91312595D01*
X52348761Y-91264976D01*
X52396380Y-91169738D01*
X52396380Y-90884023D01*
X52348761Y-90788785D01*
X52301142Y-90741166D01*
%TO.C,R2*%
X46806380Y-91677833D02*
X46330190Y-91344500D01*
X46806380Y-91106404D02*
X45806380Y-91106404D01*
X45806380Y-91487357D01*
X45854000Y-91582595D01*
X45901619Y-91630214D01*
X45996857Y-91677833D01*
X46139714Y-91677833D01*
X46234952Y-91630214D01*
X46282571Y-91582595D01*
X46330190Y-91487357D01*
X46330190Y-91106404D01*
X45901619Y-92058785D02*
X45854000Y-92106404D01*
X45806380Y-92201642D01*
X45806380Y-92439738D01*
X45854000Y-92534976D01*
X45901619Y-92582595D01*
X45996857Y-92630214D01*
X46092095Y-92630214D01*
X46234952Y-92582595D01*
X46806380Y-92011166D01*
X46806380Y-92630214D01*
%TO.C,R1*%
X43631380Y-91677833D02*
X43155190Y-91344500D01*
X43631380Y-91106404D02*
X42631380Y-91106404D01*
X42631380Y-91487357D01*
X42679000Y-91582595D01*
X42726619Y-91630214D01*
X42821857Y-91677833D01*
X42964714Y-91677833D01*
X43059952Y-91630214D01*
X43107571Y-91582595D01*
X43155190Y-91487357D01*
X43155190Y-91106404D01*
X43631380Y-92630214D02*
X43631380Y-92058785D01*
X43631380Y-92344500D02*
X42631380Y-92344500D01*
X42774238Y-92249261D01*
X42869476Y-92154023D01*
X42917095Y-92058785D01*
%TO.C,F1*%
X40483571Y-94538666D02*
X40483571Y-94205333D01*
X41007380Y-94205333D02*
X40007380Y-94205333D01*
X40007380Y-94681523D01*
X41007380Y-95586285D02*
X41007380Y-95014857D01*
X41007380Y-95300571D02*
X40007380Y-95300571D01*
X40150238Y-95205333D01*
X40245476Y-95110095D01*
X40293095Y-95014857D01*
%TO.C,D4*%
X117895380Y-107083904D02*
X116895380Y-107083904D01*
X116895380Y-107322000D01*
X116943000Y-107464857D01*
X117038238Y-107560095D01*
X117133476Y-107607714D01*
X117323952Y-107655333D01*
X117466809Y-107655333D01*
X117657285Y-107607714D01*
X117752523Y-107560095D01*
X117847761Y-107464857D01*
X117895380Y-107322000D01*
X117895380Y-107083904D01*
X117228714Y-108512476D02*
X117895380Y-108512476D01*
X116847761Y-108274380D02*
X117562047Y-108036285D01*
X117562047Y-108655333D01*
%TO.C,D3*%
X117895380Y-88033904D02*
X116895380Y-88033904D01*
X116895380Y-88272000D01*
X116943000Y-88414857D01*
X117038238Y-88510095D01*
X117133476Y-88557714D01*
X117323952Y-88605333D01*
X117466809Y-88605333D01*
X117657285Y-88557714D01*
X117752523Y-88510095D01*
X117847761Y-88414857D01*
X117895380Y-88272000D01*
X117895380Y-88033904D01*
X116895380Y-88938666D02*
X116895380Y-89557714D01*
X117276333Y-89224380D01*
X117276333Y-89367238D01*
X117323952Y-89462476D01*
X117371571Y-89510095D01*
X117466809Y-89557714D01*
X117704904Y-89557714D01*
X117800142Y-89510095D01*
X117847761Y-89462476D01*
X117895380Y-89367238D01*
X117895380Y-89081523D01*
X117847761Y-88986285D01*
X117800142Y-88938666D01*
%TO.C,D2*%
X98845380Y-106956904D02*
X97845380Y-106956904D01*
X97845380Y-107195000D01*
X97893000Y-107337857D01*
X97988238Y-107433095D01*
X98083476Y-107480714D01*
X98273952Y-107528333D01*
X98416809Y-107528333D01*
X98607285Y-107480714D01*
X98702523Y-107433095D01*
X98797761Y-107337857D01*
X98845380Y-107195000D01*
X98845380Y-106956904D01*
X97940619Y-107909285D02*
X97893000Y-107956904D01*
X97845380Y-108052142D01*
X97845380Y-108290238D01*
X97893000Y-108385476D01*
X97940619Y-108433095D01*
X98035857Y-108480714D01*
X98131095Y-108480714D01*
X98273952Y-108433095D01*
X98845380Y-107861666D01*
X98845380Y-108480714D01*
%TO.C,D1*%
X98845380Y-88033904D02*
X97845380Y-88033904D01*
X97845380Y-88272000D01*
X97893000Y-88414857D01*
X97988238Y-88510095D01*
X98083476Y-88557714D01*
X98273952Y-88605333D01*
X98416809Y-88605333D01*
X98607285Y-88557714D01*
X98702523Y-88510095D01*
X98797761Y-88414857D01*
X98845380Y-88272000D01*
X98845380Y-88033904D01*
X98845380Y-89557714D02*
X98845380Y-88986285D01*
X98845380Y-89272000D02*
X97845380Y-89272000D01*
X97988238Y-89176761D01*
X98083476Y-89081523D01*
X98131095Y-88986285D01*
%TO.C,C7*%
X62235416Y-110780892D02*
X62283035Y-110828511D01*
X62425892Y-110876130D01*
X62521130Y-110876130D01*
X62663988Y-110828511D01*
X62759226Y-110733273D01*
X62806845Y-110638035D01*
X62854464Y-110447559D01*
X62854464Y-110304702D01*
X62806845Y-110114226D01*
X62759226Y-110018988D01*
X62663988Y-109923750D01*
X62521130Y-109876130D01*
X62425892Y-109876130D01*
X62283035Y-109923750D01*
X62235416Y-109971369D01*
X61902083Y-109876130D02*
X61235416Y-109876130D01*
X61663988Y-110876130D01*
%TO.C,C6*%
X52845142Y-97877333D02*
X52892761Y-97829714D01*
X52940380Y-97686857D01*
X52940380Y-97591619D01*
X52892761Y-97448761D01*
X52797523Y-97353523D01*
X52702285Y-97305904D01*
X52511809Y-97258285D01*
X52368952Y-97258285D01*
X52178476Y-97305904D01*
X52083238Y-97353523D01*
X51988000Y-97448761D01*
X51940380Y-97591619D01*
X51940380Y-97686857D01*
X51988000Y-97829714D01*
X52035619Y-97877333D01*
X51940380Y-98734476D02*
X51940380Y-98544000D01*
X51988000Y-98448761D01*
X52035619Y-98401142D01*
X52178476Y-98305904D01*
X52368952Y-98258285D01*
X52749904Y-98258285D01*
X52845142Y-98305904D01*
X52892761Y-98353523D01*
X52940380Y-98448761D01*
X52940380Y-98639238D01*
X52892761Y-98734476D01*
X52845142Y-98782095D01*
X52749904Y-98829714D01*
X52511809Y-98829714D01*
X52416571Y-98782095D01*
X52368952Y-98734476D01*
X52321333Y-98639238D01*
X52321333Y-98448761D01*
X52368952Y-98353523D01*
X52416571Y-98305904D01*
X52511809Y-98258285D01*
%TO.C,C5*%
X75998857Y-95350666D02*
X75951238Y-95398285D01*
X75903619Y-95541142D01*
X75903619Y-95636380D01*
X75951238Y-95779238D01*
X76046476Y-95874476D01*
X76141714Y-95922095D01*
X76332190Y-95969714D01*
X76475047Y-95969714D01*
X76665523Y-95922095D01*
X76760761Y-95874476D01*
X76856000Y-95779238D01*
X76903619Y-95636380D01*
X76903619Y-95541142D01*
X76856000Y-95398285D01*
X76808380Y-95350666D01*
X76903619Y-94445904D02*
X76903619Y-94922095D01*
X76427428Y-94969714D01*
X76475047Y-94922095D01*
X76522666Y-94826857D01*
X76522666Y-94588761D01*
X76475047Y-94493523D01*
X76427428Y-94445904D01*
X76332190Y-94398285D01*
X76094095Y-94398285D01*
X75998857Y-94445904D01*
X75951238Y-94493523D01*
X75903619Y-94588761D01*
X75903619Y-94826857D01*
X75951238Y-94922095D01*
X75998857Y-94969714D01*
%TO.C,C4*%
X59002142Y-87143333D02*
X59049761Y-87095714D01*
X59097380Y-86952857D01*
X59097380Y-86857619D01*
X59049761Y-86714761D01*
X58954523Y-86619523D01*
X58859285Y-86571904D01*
X58668809Y-86524285D01*
X58525952Y-86524285D01*
X58335476Y-86571904D01*
X58240238Y-86619523D01*
X58145000Y-86714761D01*
X58097380Y-86857619D01*
X58097380Y-86952857D01*
X58145000Y-87095714D01*
X58192619Y-87143333D01*
X58430714Y-88000476D02*
X59097380Y-88000476D01*
X58049761Y-87762380D02*
X58764047Y-87524285D01*
X58764047Y-88143333D01*
%TO.C,C3*%
X71506142Y-87143333D02*
X71553761Y-87095714D01*
X71601380Y-86952857D01*
X71601380Y-86857619D01*
X71553761Y-86714761D01*
X71458523Y-86619523D01*
X71363285Y-86571904D01*
X71172809Y-86524285D01*
X71029952Y-86524285D01*
X70839476Y-86571904D01*
X70744238Y-86619523D01*
X70649000Y-86714761D01*
X70601380Y-86857619D01*
X70601380Y-86952857D01*
X70649000Y-87095714D01*
X70696619Y-87143333D01*
X70601380Y-87476666D02*
X70601380Y-88095714D01*
X70982333Y-87762380D01*
X70982333Y-87905238D01*
X71029952Y-88000476D01*
X71077571Y-88048095D01*
X71172809Y-88095714D01*
X71410904Y-88095714D01*
X71506142Y-88048095D01*
X71553761Y-88000476D01*
X71601380Y-87905238D01*
X71601380Y-87619523D01*
X71553761Y-87524285D01*
X71506142Y-87476666D01*
%TO.C,C2*%
X67791666Y-107420892D02*
X67839285Y-107468511D01*
X67982142Y-107516130D01*
X68077380Y-107516130D01*
X68220238Y-107468511D01*
X68315476Y-107373273D01*
X68363095Y-107278035D01*
X68410714Y-107087559D01*
X68410714Y-106944702D01*
X68363095Y-106754226D01*
X68315476Y-106658988D01*
X68220238Y-106563750D01*
X68077380Y-106516130D01*
X67982142Y-106516130D01*
X67839285Y-106563750D01*
X67791666Y-106611369D01*
X67410714Y-106611369D02*
X67363095Y-106563750D01*
X67267857Y-106516130D01*
X67029761Y-106516130D01*
X66934523Y-106563750D01*
X66886904Y-106611369D01*
X66839285Y-106706607D01*
X66839285Y-106801845D01*
X66886904Y-106944702D01*
X67458333Y-107516130D01*
X66839285Y-107516130D01*
%TO.C,C1*%
X58933142Y-90445333D02*
X58980761Y-90397714D01*
X59028380Y-90254857D01*
X59028380Y-90159619D01*
X58980761Y-90016761D01*
X58885523Y-89921523D01*
X58790285Y-89873904D01*
X58599809Y-89826285D01*
X58456952Y-89826285D01*
X58266476Y-89873904D01*
X58171238Y-89921523D01*
X58076000Y-90016761D01*
X58028380Y-90159619D01*
X58028380Y-90254857D01*
X58076000Y-90397714D01*
X58123619Y-90445333D01*
X59028380Y-91397714D02*
X59028380Y-90826285D01*
X59028380Y-91112000D02*
X58028380Y-91112000D01*
X58171238Y-91016761D01*
X58266476Y-90921523D01*
X58314095Y-90826285D01*
%TD*%
%LPC*%
D12*
%TO.C,SW1*%
X41962000Y-107387000D03*
X35762000Y-103687000D03*
X41962000Y-103687000D03*
X35762000Y-107387000D03*
%TD*%
D13*
%TO.C,Y1*%
X66071750Y-86487000D03*
X63871750Y-86487000D03*
X63871750Y-88187000D03*
X66071750Y-88187000D03*
%TD*%
D14*
%TO.C,USB1*%
X40006250Y-81756250D03*
X47306250Y-81756250D03*
X47306250Y-86256250D03*
X40006250Y-86256250D03*
D15*
X42056250Y-86256250D03*
X42856250Y-86256250D03*
X43656250Y-86256250D03*
X44456250Y-86256250D03*
X45256250Y-86256250D03*
%TD*%
D16*
%TO.C,U1*%
X60897000Y-104410750D03*
X61697000Y-104410750D03*
X62497000Y-104410750D03*
X63297000Y-104410750D03*
X64097000Y-104410750D03*
X64897000Y-104410750D03*
X65697000Y-104410750D03*
X66497000Y-104410750D03*
X67297000Y-104410750D03*
X68097000Y-104410750D03*
X68897000Y-104410750D03*
D17*
X70597000Y-102710750D03*
X70597000Y-101910750D03*
X70597000Y-101110750D03*
X70597000Y-100310750D03*
X70597000Y-99510750D03*
X70597000Y-98710750D03*
X70597000Y-97910750D03*
X70597000Y-97110750D03*
X70597000Y-96310750D03*
X70597000Y-95510750D03*
X70597000Y-94710750D03*
D16*
X68897000Y-93010750D03*
X68097000Y-93010750D03*
X67297000Y-93010750D03*
X66497000Y-93010750D03*
X65697000Y-93010750D03*
X64897000Y-93010750D03*
X64097000Y-93010750D03*
X63297000Y-93010750D03*
X62497000Y-93010750D03*
X61697000Y-93010750D03*
X60897000Y-93010750D03*
D17*
X59197000Y-94710750D03*
X59197000Y-95510750D03*
X59197000Y-96310750D03*
X59197000Y-97110750D03*
X59197000Y-97910750D03*
X59197000Y-98710750D03*
X59197000Y-99510750D03*
X59197000Y-100310750D03*
X59197000Y-101110750D03*
X59197000Y-101910750D03*
X59197000Y-102710750D03*
%TD*%
%TO.C,R4*%
G36*
G01*
X74999001Y-103128500D02*
X74098999Y-103128500D01*
G75*
G02*
X73849000Y-102878501I0J249999D01*
G01*
X73849000Y-102353499D01*
G75*
G02*
X74098999Y-102103500I249999J0D01*
G01*
X74999001Y-102103500D01*
G75*
G02*
X75249000Y-102353499I0J-249999D01*
G01*
X75249000Y-102878501D01*
G75*
G02*
X74999001Y-103128500I-249999J0D01*
G01*
G37*
G36*
G01*
X74999001Y-104953500D02*
X74098999Y-104953500D01*
G75*
G02*
X73849000Y-104703501I0J249999D01*
G01*
X73849000Y-104178499D01*
G75*
G02*
X74098999Y-103928500I249999J0D01*
G01*
X74999001Y-103928500D01*
G75*
G02*
X75249000Y-104178499I0J-249999D01*
G01*
X75249000Y-104703501D01*
G75*
G02*
X74999001Y-104953500I-249999J0D01*
G01*
G37*
%TD*%
%TO.C,R3*%
G36*
G01*
X53143999Y-89149500D02*
X54044001Y-89149500D01*
G75*
G02*
X54294000Y-89399499I0J-249999D01*
G01*
X54294000Y-89924501D01*
G75*
G02*
X54044001Y-90174500I-249999J0D01*
G01*
X53143999Y-90174500D01*
G75*
G02*
X52894000Y-89924501I0J249999D01*
G01*
X52894000Y-89399499D01*
G75*
G02*
X53143999Y-89149500I249999J0D01*
G01*
G37*
G36*
G01*
X53143999Y-90974500D02*
X54044001Y-90974500D01*
G75*
G02*
X54294000Y-91224499I0J-249999D01*
G01*
X54294000Y-91749501D01*
G75*
G02*
X54044001Y-91999500I-249999J0D01*
G01*
X53143999Y-91999500D01*
G75*
G02*
X52894000Y-91749501I0J249999D01*
G01*
X52894000Y-91224499D01*
G75*
G02*
X53143999Y-90974500I249999J0D01*
G01*
G37*
%TD*%
%TO.C,R2*%
G36*
G01*
X45154001Y-91444500D02*
X44253999Y-91444500D01*
G75*
G02*
X44004000Y-91194501I0J249999D01*
G01*
X44004000Y-90669499D01*
G75*
G02*
X44253999Y-90419500I249999J0D01*
G01*
X45154001Y-90419500D01*
G75*
G02*
X45404000Y-90669499I0J-249999D01*
G01*
X45404000Y-91194501D01*
G75*
G02*
X45154001Y-91444500I-249999J0D01*
G01*
G37*
G36*
G01*
X45154001Y-93269500D02*
X44253999Y-93269500D01*
G75*
G02*
X44004000Y-93019501I0J249999D01*
G01*
X44004000Y-92494499D01*
G75*
G02*
X44253999Y-92244500I249999J0D01*
G01*
X45154001Y-92244500D01*
G75*
G02*
X45404000Y-92494499I0J-249999D01*
G01*
X45404000Y-93019501D01*
G75*
G02*
X45154001Y-93269500I-249999J0D01*
G01*
G37*
%TD*%
%TO.C,R1*%
G36*
G01*
X41979001Y-91444500D02*
X41078999Y-91444500D01*
G75*
G02*
X40829000Y-91194501I0J249999D01*
G01*
X40829000Y-90669499D01*
G75*
G02*
X41078999Y-90419500I249999J0D01*
G01*
X41979001Y-90419500D01*
G75*
G02*
X42229000Y-90669499I0J-249999D01*
G01*
X42229000Y-91194501D01*
G75*
G02*
X41979001Y-91444500I-249999J0D01*
G01*
G37*
G36*
G01*
X41979001Y-93269500D02*
X41078999Y-93269500D01*
G75*
G02*
X40829000Y-93019501I0J249999D01*
G01*
X40829000Y-92494499D01*
G75*
G02*
X41078999Y-92244500I249999J0D01*
G01*
X41979001Y-92244500D01*
G75*
G02*
X42229000Y-92494499I0J-249999D01*
G01*
X42229000Y-93019501D01*
G75*
G02*
X41979001Y-93269500I-249999J0D01*
G01*
G37*
%TD*%
D18*
%TO.C,MX4*%
X113030000Y-107950000D03*
X102870000Y-107950000D03*
D19*
X109220000Y-113030000D03*
D20*
X106680000Y-113030000D03*
D21*
X105450000Y-103950000D03*
D22*
X107950000Y-107950000D03*
G36*
G01*
X103388688Y-106247350D02*
X103388683Y-106247345D01*
G75*
G02*
X103302655Y-104658683I751317J837345D01*
G01*
X104612657Y-103198683D01*
G75*
G02*
X106201319Y-103112655I837345J-751317D01*
G01*
X106201319Y-103112655D01*
G75*
G02*
X106287347Y-104701317I-751317J-837345D01*
G01*
X104977345Y-106161317D01*
G75*
G02*
X103388683Y-106247345I-837345J751317D01*
G01*
G37*
D21*
X110490000Y-102870000D03*
G36*
G01*
X110373483Y-104572395D02*
X110372597Y-104572334D01*
G75*
G02*
X109327666Y-103372597I77403J1122334D01*
G01*
X109367666Y-102792597D01*
G75*
G02*
X110567403Y-101747666I1122334J-77403D01*
G01*
X110567403Y-101747666D01*
G75*
G02*
X111612334Y-102947403I-77403J-1122334D01*
G01*
X111572334Y-103527403D01*
G75*
G02*
X110372597Y-104572334I-1122334J77403D01*
G01*
G37*
%TD*%
%TO.C,MX3*%
G36*
G01*
X110373483Y-85522395D02*
X110372597Y-85522334D01*
G75*
G02*
X109327666Y-84322597I77403J1122334D01*
G01*
X109367666Y-83742597D01*
G75*
G02*
X110567403Y-82697666I1122334J-77403D01*
G01*
X110567403Y-82697666D01*
G75*
G02*
X111612334Y-83897403I-77403J-1122334D01*
G01*
X111572334Y-84477403D01*
G75*
G02*
X110372597Y-85522334I-1122334J77403D01*
G01*
G37*
X110490000Y-83820000D03*
G36*
G01*
X103388688Y-87197350D02*
X103388683Y-87197345D01*
G75*
G02*
X103302655Y-85608683I751317J837345D01*
G01*
X104612657Y-84148683D01*
G75*
G02*
X106201319Y-84062655I837345J-751317D01*
G01*
X106201319Y-84062655D01*
G75*
G02*
X106287347Y-85651317I-751317J-837345D01*
G01*
X104977345Y-87111317D01*
G75*
G02*
X103388683Y-87197345I-837345J751317D01*
G01*
G37*
D22*
X107950000Y-88900000D03*
D21*
X105450000Y-84900000D03*
D20*
X106680000Y-93980000D03*
D19*
X109220000Y-93980000D03*
D18*
X102870000Y-88900000D03*
X113030000Y-88900000D03*
%TD*%
%TO.C,MX2*%
X93980000Y-107950000D03*
X83820000Y-107950000D03*
D19*
X90170000Y-113030000D03*
D20*
X87630000Y-113030000D03*
D21*
X86400000Y-103950000D03*
D22*
X88900000Y-107950000D03*
G36*
G01*
X84338688Y-106247350D02*
X84338683Y-106247345D01*
G75*
G02*
X84252655Y-104658683I751317J837345D01*
G01*
X85562657Y-103198683D01*
G75*
G02*
X87151319Y-103112655I837345J-751317D01*
G01*
X87151319Y-103112655D01*
G75*
G02*
X87237347Y-104701317I-751317J-837345D01*
G01*
X85927345Y-106161317D01*
G75*
G02*
X84338683Y-106247345I-837345J751317D01*
G01*
G37*
D21*
X91440000Y-102870000D03*
G36*
G01*
X91323483Y-104572395D02*
X91322597Y-104572334D01*
G75*
G02*
X90277666Y-103372597I77403J1122334D01*
G01*
X90317666Y-102792597D01*
G75*
G02*
X91517403Y-101747666I1122334J-77403D01*
G01*
X91517403Y-101747666D01*
G75*
G02*
X92562334Y-102947403I-77403J-1122334D01*
G01*
X92522334Y-103527403D01*
G75*
G02*
X91322597Y-104572334I-1122334J77403D01*
G01*
G37*
%TD*%
D18*
%TO.C,MX1*%
X93980000Y-88900000D03*
X83820000Y-88900000D03*
D19*
X90170000Y-93980000D03*
D20*
X87630000Y-93980000D03*
D21*
X86400000Y-84900000D03*
D22*
X88900000Y-88900000D03*
G36*
G01*
X84338688Y-87197350D02*
X84338683Y-87197345D01*
G75*
G02*
X84252655Y-85608683I751317J837345D01*
G01*
X85562657Y-84148683D01*
G75*
G02*
X87151319Y-84062655I837345J-751317D01*
G01*
X87151319Y-84062655D01*
G75*
G02*
X87237347Y-85651317I-751317J-837345D01*
G01*
X85927345Y-87111317D01*
G75*
G02*
X84338683Y-87197345I-837345J751317D01*
G01*
G37*
D21*
X91440000Y-83820000D03*
G36*
G01*
X91323483Y-85522395D02*
X91322597Y-85522334D01*
G75*
G02*
X90277666Y-84322597I77403J1122334D01*
G01*
X90317666Y-83742597D01*
G75*
G02*
X91517403Y-82697666I1122334J-77403D01*
G01*
X91517403Y-82697666D01*
G75*
G02*
X92562334Y-83897403I-77403J-1122334D01*
G01*
X92522334Y-84477403D01*
G75*
G02*
X91322597Y-85522334I-1122334J77403D01*
G01*
G37*
%TD*%
%TO.C,F1*%
G36*
G01*
X39360000Y-94097000D02*
X38110000Y-94097000D01*
G75*
G02*
X37860000Y-93847000I0J250000D01*
G01*
X37860000Y-93097000D01*
G75*
G02*
X38110000Y-92847000I250000J0D01*
G01*
X39360000Y-92847000D01*
G75*
G02*
X39610000Y-93097000I0J-250000D01*
G01*
X39610000Y-93847000D01*
G75*
G02*
X39360000Y-94097000I-250000J0D01*
G01*
G37*
G36*
G01*
X39360000Y-96897000D02*
X38110000Y-96897000D01*
G75*
G02*
X37860000Y-96647000I0J250000D01*
G01*
X37860000Y-95897000D01*
G75*
G02*
X38110000Y-95647000I250000J0D01*
G01*
X39360000Y-95647000D01*
G75*
G02*
X39610000Y-95897000I0J-250000D01*
G01*
X39610000Y-96647000D01*
G75*
G02*
X39360000Y-96897000I-250000J0D01*
G01*
G37*
%TD*%
D23*
%TO.C,D4*%
X115443000Y-106172000D03*
X115443000Y-109472000D03*
%TD*%
%TO.C,D3*%
X115443000Y-87122000D03*
X115443000Y-90422000D03*
%TD*%
%TO.C,D2*%
X96393000Y-106045000D03*
X96393000Y-109345000D03*
%TD*%
%TO.C,D1*%
X96393000Y-87122000D03*
X96393000Y-90422000D03*
%TD*%
%TO.C,C7*%
G36*
G01*
X62518750Y-109218750D02*
X62518750Y-108268750D01*
G75*
G02*
X62768750Y-108018750I250000J0D01*
G01*
X63268750Y-108018750D01*
G75*
G02*
X63518750Y-108268750I0J-250000D01*
G01*
X63518750Y-109218750D01*
G75*
G02*
X63268750Y-109468750I-250000J0D01*
G01*
X62768750Y-109468750D01*
G75*
G02*
X62518750Y-109218750I0J250000D01*
G01*
G37*
G36*
G01*
X60618750Y-109218750D02*
X60618750Y-108268750D01*
G75*
G02*
X60868750Y-108018750I250000J0D01*
G01*
X61368750Y-108018750D01*
G75*
G02*
X61618750Y-108268750I0J-250000D01*
G01*
X61618750Y-109218750D01*
G75*
G02*
X61368750Y-109468750I-250000J0D01*
G01*
X60868750Y-109468750D01*
G75*
G02*
X60618750Y-109218750I0J250000D01*
G01*
G37*
%TD*%
%TO.C,C6*%
G36*
G01*
X53693000Y-98494000D02*
X54643000Y-98494000D01*
G75*
G02*
X54893000Y-98744000I0J-250000D01*
G01*
X54893000Y-99244000D01*
G75*
G02*
X54643000Y-99494000I-250000J0D01*
G01*
X53693000Y-99494000D01*
G75*
G02*
X53443000Y-99244000I0J250000D01*
G01*
X53443000Y-98744000D01*
G75*
G02*
X53693000Y-98494000I250000J0D01*
G01*
G37*
G36*
G01*
X53693000Y-96594000D02*
X54643000Y-96594000D01*
G75*
G02*
X54893000Y-96844000I0J-250000D01*
G01*
X54893000Y-97344000D01*
G75*
G02*
X54643000Y-97594000I-250000J0D01*
G01*
X53693000Y-97594000D01*
G75*
G02*
X53443000Y-97344000I0J250000D01*
G01*
X53443000Y-96844000D01*
G75*
G02*
X53693000Y-96594000I250000J0D01*
G01*
G37*
%TD*%
%TO.C,C5*%
G36*
G01*
X75151000Y-94734000D02*
X74201000Y-94734000D01*
G75*
G02*
X73951000Y-94484000I0J250000D01*
G01*
X73951000Y-93984000D01*
G75*
G02*
X74201000Y-93734000I250000J0D01*
G01*
X75151000Y-93734000D01*
G75*
G02*
X75401000Y-93984000I0J-250000D01*
G01*
X75401000Y-94484000D01*
G75*
G02*
X75151000Y-94734000I-250000J0D01*
G01*
G37*
G36*
G01*
X75151000Y-96634000D02*
X74201000Y-96634000D01*
G75*
G02*
X73951000Y-96384000I0J250000D01*
G01*
X73951000Y-95884000D01*
G75*
G02*
X74201000Y-95634000I250000J0D01*
G01*
X75151000Y-95634000D01*
G75*
G02*
X75401000Y-95884000I0J-250000D01*
G01*
X75401000Y-96384000D01*
G75*
G02*
X75151000Y-96634000I-250000J0D01*
G01*
G37*
%TD*%
%TO.C,C4*%
G36*
G01*
X59850000Y-87760000D02*
X60800000Y-87760000D01*
G75*
G02*
X61050000Y-88010000I0J-250000D01*
G01*
X61050000Y-88510000D01*
G75*
G02*
X60800000Y-88760000I-250000J0D01*
G01*
X59850000Y-88760000D01*
G75*
G02*
X59600000Y-88510000I0J250000D01*
G01*
X59600000Y-88010000D01*
G75*
G02*
X59850000Y-87760000I250000J0D01*
G01*
G37*
G36*
G01*
X59850000Y-85860000D02*
X60800000Y-85860000D01*
G75*
G02*
X61050000Y-86110000I0J-250000D01*
G01*
X61050000Y-86610000D01*
G75*
G02*
X60800000Y-86860000I-250000J0D01*
G01*
X59850000Y-86860000D01*
G75*
G02*
X59600000Y-86610000I0J250000D01*
G01*
X59600000Y-86110000D01*
G75*
G02*
X59850000Y-85860000I250000J0D01*
G01*
G37*
%TD*%
%TO.C,C3*%
G36*
G01*
X69944000Y-86860000D02*
X68994000Y-86860000D01*
G75*
G02*
X68744000Y-86610000I0J250000D01*
G01*
X68744000Y-86110000D01*
G75*
G02*
X68994000Y-85860000I250000J0D01*
G01*
X69944000Y-85860000D01*
G75*
G02*
X70194000Y-86110000I0J-250000D01*
G01*
X70194000Y-86610000D01*
G75*
G02*
X69944000Y-86860000I-250000J0D01*
G01*
G37*
G36*
G01*
X69944000Y-88760000D02*
X68994000Y-88760000D01*
G75*
G02*
X68744000Y-88510000I0J250000D01*
G01*
X68744000Y-88010000D01*
G75*
G02*
X68994000Y-87760000I250000J0D01*
G01*
X69944000Y-87760000D01*
G75*
G02*
X70194000Y-88010000I0J-250000D01*
G01*
X70194000Y-88510000D01*
G75*
G02*
X69944000Y-88760000I-250000J0D01*
G01*
G37*
%TD*%
%TO.C,C2*%
G36*
G01*
X67175000Y-108268750D02*
X67175000Y-109218750D01*
G75*
G02*
X66925000Y-109468750I-250000J0D01*
G01*
X66425000Y-109468750D01*
G75*
G02*
X66175000Y-109218750I0J250000D01*
G01*
X66175000Y-108268750D01*
G75*
G02*
X66425000Y-108018750I250000J0D01*
G01*
X66925000Y-108018750D01*
G75*
G02*
X67175000Y-108268750I0J-250000D01*
G01*
G37*
G36*
G01*
X69075000Y-108268750D02*
X69075000Y-109218750D01*
G75*
G02*
X68825000Y-109468750I-250000J0D01*
G01*
X68325000Y-109468750D01*
G75*
G02*
X68075000Y-109218750I0J250000D01*
G01*
X68075000Y-108268750D01*
G75*
G02*
X68325000Y-108018750I250000J0D01*
G01*
X68825000Y-108018750D01*
G75*
G02*
X69075000Y-108268750I0J-250000D01*
G01*
G37*
%TD*%
%TO.C,C1*%
G36*
G01*
X57371000Y-90162000D02*
X56421000Y-90162000D01*
G75*
G02*
X56171000Y-89912000I0J250000D01*
G01*
X56171000Y-89412000D01*
G75*
G02*
X56421000Y-89162000I250000J0D01*
G01*
X57371000Y-89162000D01*
G75*
G02*
X57621000Y-89412000I0J-250000D01*
G01*
X57621000Y-89912000D01*
G75*
G02*
X57371000Y-90162000I-250000J0D01*
G01*
G37*
G36*
G01*
X57371000Y-92062000D02*
X56421000Y-92062000D01*
G75*
G02*
X56171000Y-91812000I0J250000D01*
G01*
X56171000Y-91312000D01*
G75*
G02*
X56421000Y-91062000I250000J0D01*
G01*
X57371000Y-91062000D01*
G75*
G02*
X57621000Y-91312000I0J-250000D01*
G01*
X57621000Y-91812000D01*
G75*
G02*
X57371000Y-92062000I-250000J0D01*
G01*
G37*
%TD*%
M02*
