%TF.GenerationSoftware,KiCad,Pcbnew,(5.1.8)-1*%
%TF.CreationDate,2020-12-11T14:52:39-05:00*%
%TF.ProjectId,kevins-pcb-numpad,6b657669-6e73-42d7-9063-622d6e756d70,rev?*%
%TF.SameCoordinates,Original*%
%TF.FileFunction,Copper,L2,Bot*%
%TF.FilePolarity,Positive*%
%FSLAX46Y46*%
G04 Gerber Fmt 4.6, Leading zero omitted, Abs format (unit mm)*
G04 Created by KiCad (PCBNEW (5.1.8)-1) date 2020-12-11 14:52:39*
%MOMM*%
%LPD*%
G01*
G04 APERTURE LIST*
%TA.AperFunction,SMDPad,CuDef*%
%ADD10R,1.800000X1.100000*%
%TD*%
%TA.AperFunction,SMDPad,CuDef*%
%ADD11R,1.400000X1.200000*%
%TD*%
%TA.AperFunction,ComponentPad*%
%ADD12O,1.700000X2.700000*%
%TD*%
%TA.AperFunction,SMDPad,CuDef*%
%ADD13R,0.500000X2.250000*%
%TD*%
%TA.AperFunction,SMDPad,CuDef*%
%ADD14R,0.550000X1.500000*%
%TD*%
%TA.AperFunction,SMDPad,CuDef*%
%ADD15R,1.500000X0.550000*%
%TD*%
%TA.AperFunction,ComponentPad*%
%ADD16R,1.905000X1.905000*%
%TD*%
%TA.AperFunction,ComponentPad*%
%ADD17C,1.905000*%
%TD*%
%TA.AperFunction,ComponentPad*%
%ADD18C,2.250000*%
%TD*%
%TA.AperFunction,SMDPad,CuDef*%
%ADD19R,1.200000X0.900000*%
%TD*%
%TA.AperFunction,ViaPad*%
%ADD20C,0.800000*%
%TD*%
%TA.AperFunction,Conductor*%
%ADD21C,0.381000*%
%TD*%
%TA.AperFunction,Conductor*%
%ADD22C,0.254000*%
%TD*%
%TA.AperFunction,Conductor*%
%ADD23C,0.100000*%
%TD*%
G04 APERTURE END LIST*
D10*
%TO.P,SW1,4*%
%TO.N,N/C*%
X41962000Y-107387000D03*
%TO.P,SW1,3*%
X35762000Y-103687000D03*
%TO.P,SW1,2*%
%TO.N,Net-(R3-Pad2)*%
X41962000Y-103687000D03*
%TO.P,SW1,1*%
%TO.N,GND*%
X35762000Y-107387000D03*
%TD*%
D11*
%TO.P,Y1,4*%
%TO.N,GND*%
X66071750Y-86487000D03*
%TO.P,Y1,3*%
%TO.N,Net-(C4-Pad1)*%
X63871750Y-86487000D03*
%TO.P,Y1,2*%
%TO.N,GND*%
X63871750Y-88187000D03*
%TO.P,Y1,1*%
%TO.N,Net-(C3-Pad1)*%
X66071750Y-88187000D03*
%TD*%
D12*
%TO.P,USB1,6*%
%TO.N,Net-(USB1-Pad6)*%
X40006250Y-81756250D03*
X47306250Y-81756250D03*
X47306250Y-86256250D03*
X40006250Y-86256250D03*
D13*
%TO.P,USB1,5*%
%TO.N,VCC*%
X42056250Y-86256250D03*
%TO.P,USB1,4*%
%TO.N,D-*%
X42856250Y-86256250D03*
%TO.P,USB1,3*%
%TO.N,D+*%
X43656250Y-86256250D03*
%TO.P,USB1,2*%
%TO.N,Net-(USB1-Pad2)*%
X44456250Y-86256250D03*
%TO.P,USB1,1*%
%TO.N,GND*%
X45256250Y-86256250D03*
%TD*%
D14*
%TO.P,U1,44*%
%TO.N,+5V*%
X60897000Y-104410750D03*
%TO.P,U1,43*%
%TO.N,GND*%
X61697000Y-104410750D03*
%TO.P,U1,42*%
%TO.N,Net-(U1-Pad42)*%
X62497000Y-104410750D03*
%TO.P,U1,41*%
%TO.N,Net-(U1-Pad41)*%
X63297000Y-104410750D03*
%TO.P,U1,40*%
%TO.N,Net-(U1-Pad40)*%
X64097000Y-104410750D03*
%TO.P,U1,39*%
%TO.N,Net-(U1-Pad39)*%
X64897000Y-104410750D03*
%TO.P,U1,38*%
%TO.N,Net-(U1-Pad38)*%
X65697000Y-104410750D03*
%TO.P,U1,37*%
%TO.N,Net-(U1-Pad37)*%
X66497000Y-104410750D03*
%TO.P,U1,36*%
%TO.N,Net-(U1-Pad36)*%
X67297000Y-104410750D03*
%TO.P,U1,35*%
%TO.N,GND*%
X68097000Y-104410750D03*
%TO.P,U1,34*%
%TO.N,+5V*%
X68897000Y-104410750D03*
D15*
%TO.P,U1,33*%
%TO.N,Net-(R4-Pad2)*%
X70597000Y-102710750D03*
%TO.P,U1,32*%
%TO.N,Net-(U1-Pad32)*%
X70597000Y-101910750D03*
%TO.P,U1,31*%
%TO.N,Net-(U1-Pad31)*%
X70597000Y-101110750D03*
%TO.P,U1,30*%
%TO.N,ROW1*%
X70597000Y-100310750D03*
%TO.P,U1,29*%
%TO.N,COL0*%
X70597000Y-99510750D03*
%TO.P,U1,28*%
%TO.N,COL1*%
X70597000Y-98710750D03*
%TO.P,U1,27*%
%TO.N,ROW0*%
X70597000Y-97910750D03*
%TO.P,U1,26*%
%TO.N,Net-(U1-Pad26)*%
X70597000Y-97110750D03*
%TO.P,U1,25*%
%TO.N,Net-(U1-Pad25)*%
X70597000Y-96310750D03*
%TO.P,U1,24*%
%TO.N,+5V*%
X70597000Y-95510750D03*
%TO.P,U1,23*%
%TO.N,GND*%
X70597000Y-94710750D03*
D14*
%TO.P,U1,22*%
%TO.N,Net-(U1-Pad22)*%
X68897000Y-93010750D03*
%TO.P,U1,21*%
%TO.N,Net-(U1-Pad21)*%
X68097000Y-93010750D03*
%TO.P,U1,20*%
%TO.N,Net-(U1-Pad20)*%
X67297000Y-93010750D03*
%TO.P,U1,19*%
%TO.N,Net-(U1-Pad19)*%
X66497000Y-93010750D03*
%TO.P,U1,18*%
%TO.N,Net-(U1-Pad18)*%
X65697000Y-93010750D03*
%TO.P,U1,17*%
%TO.N,Net-(C3-Pad1)*%
X64897000Y-93010750D03*
%TO.P,U1,16*%
%TO.N,Net-(C4-Pad1)*%
X64097000Y-93010750D03*
%TO.P,U1,15*%
%TO.N,GND*%
X63297000Y-93010750D03*
%TO.P,U1,14*%
%TO.N,+5V*%
X62497000Y-93010750D03*
%TO.P,U1,13*%
%TO.N,Net-(R3-Pad2)*%
X61697000Y-93010750D03*
%TO.P,U1,12*%
%TO.N,Net-(U1-Pad12)*%
X60897000Y-93010750D03*
D15*
%TO.P,U1,11*%
%TO.N,Net-(U1-Pad11)*%
X59197000Y-94710750D03*
%TO.P,U1,10*%
%TO.N,Net-(U1-Pad10)*%
X59197000Y-95510750D03*
%TO.P,U1,9*%
%TO.N,Net-(U1-Pad9)*%
X59197000Y-96310750D03*
%TO.P,U1,8*%
%TO.N,Net-(U1-Pad8)*%
X59197000Y-97110750D03*
%TO.P,U1,7*%
%TO.N,+5V*%
X59197000Y-97910750D03*
%TO.P,U1,6*%
%TO.N,Net-(C6-Pad1)*%
X59197000Y-98710750D03*
%TO.P,U1,5*%
%TO.N,GND*%
X59197000Y-99510750D03*
%TO.P,U1,4*%
%TO.N,Net-(R2-Pad1)*%
X59197000Y-100310750D03*
%TO.P,U1,3*%
%TO.N,Net-(R1-Pad1)*%
X59197000Y-101110750D03*
%TO.P,U1,2*%
%TO.N,+5V*%
X59197000Y-101910750D03*
%TO.P,U1,1*%
%TO.N,Net-(U1-Pad1)*%
X59197000Y-102710750D03*
%TD*%
%TO.P,R4,2*%
%TO.N,Net-(R4-Pad2)*%
%TA.AperFunction,SMDPad,CuDef*%
G36*
G01*
X74999001Y-103128500D02*
X74098999Y-103128500D01*
G75*
G02*
X73849000Y-102878501I0J249999D01*
G01*
X73849000Y-102353499D01*
G75*
G02*
X74098999Y-102103500I249999J0D01*
G01*
X74999001Y-102103500D01*
G75*
G02*
X75249000Y-102353499I0J-249999D01*
G01*
X75249000Y-102878501D01*
G75*
G02*
X74999001Y-103128500I-249999J0D01*
G01*
G37*
%TD.AperFunction*%
%TO.P,R4,1*%
%TO.N,GND*%
%TA.AperFunction,SMDPad,CuDef*%
G36*
G01*
X74999001Y-104953500D02*
X74098999Y-104953500D01*
G75*
G02*
X73849000Y-104703501I0J249999D01*
G01*
X73849000Y-104178499D01*
G75*
G02*
X74098999Y-103928500I249999J0D01*
G01*
X74999001Y-103928500D01*
G75*
G02*
X75249000Y-104178499I0J-249999D01*
G01*
X75249000Y-104703501D01*
G75*
G02*
X74999001Y-104953500I-249999J0D01*
G01*
G37*
%TD.AperFunction*%
%TD*%
%TO.P,R3,1*%
%TO.N,+5V*%
%TA.AperFunction,SMDPad,CuDef*%
G36*
G01*
X53143999Y-89149500D02*
X54044001Y-89149500D01*
G75*
G02*
X54294000Y-89399499I0J-249999D01*
G01*
X54294000Y-89924501D01*
G75*
G02*
X54044001Y-90174500I-249999J0D01*
G01*
X53143999Y-90174500D01*
G75*
G02*
X52894000Y-89924501I0J249999D01*
G01*
X52894000Y-89399499D01*
G75*
G02*
X53143999Y-89149500I249999J0D01*
G01*
G37*
%TD.AperFunction*%
%TO.P,R3,2*%
%TO.N,Net-(R3-Pad2)*%
%TA.AperFunction,SMDPad,CuDef*%
G36*
G01*
X53143999Y-90974500D02*
X54044001Y-90974500D01*
G75*
G02*
X54294000Y-91224499I0J-249999D01*
G01*
X54294000Y-91749501D01*
G75*
G02*
X54044001Y-91999500I-249999J0D01*
G01*
X53143999Y-91999500D01*
G75*
G02*
X52894000Y-91749501I0J249999D01*
G01*
X52894000Y-91224499D01*
G75*
G02*
X53143999Y-90974500I249999J0D01*
G01*
G37*
%TD.AperFunction*%
%TD*%
%TO.P,R2,2*%
%TO.N,D+*%
%TA.AperFunction,SMDPad,CuDef*%
G36*
G01*
X45154001Y-91444500D02*
X44253999Y-91444500D01*
G75*
G02*
X44004000Y-91194501I0J249999D01*
G01*
X44004000Y-90669499D01*
G75*
G02*
X44253999Y-90419500I249999J0D01*
G01*
X45154001Y-90419500D01*
G75*
G02*
X45404000Y-90669499I0J-249999D01*
G01*
X45404000Y-91194501D01*
G75*
G02*
X45154001Y-91444500I-249999J0D01*
G01*
G37*
%TD.AperFunction*%
%TO.P,R2,1*%
%TO.N,Net-(R2-Pad1)*%
%TA.AperFunction,SMDPad,CuDef*%
G36*
G01*
X45154001Y-93269500D02*
X44253999Y-93269500D01*
G75*
G02*
X44004000Y-93019501I0J249999D01*
G01*
X44004000Y-92494499D01*
G75*
G02*
X44253999Y-92244500I249999J0D01*
G01*
X45154001Y-92244500D01*
G75*
G02*
X45404000Y-92494499I0J-249999D01*
G01*
X45404000Y-93019501D01*
G75*
G02*
X45154001Y-93269500I-249999J0D01*
G01*
G37*
%TD.AperFunction*%
%TD*%
%TO.P,R1,2*%
%TO.N,D-*%
%TA.AperFunction,SMDPad,CuDef*%
G36*
G01*
X41979001Y-91444500D02*
X41078999Y-91444500D01*
G75*
G02*
X40829000Y-91194501I0J249999D01*
G01*
X40829000Y-90669499D01*
G75*
G02*
X41078999Y-90419500I249999J0D01*
G01*
X41979001Y-90419500D01*
G75*
G02*
X42229000Y-90669499I0J-249999D01*
G01*
X42229000Y-91194501D01*
G75*
G02*
X41979001Y-91444500I-249999J0D01*
G01*
G37*
%TD.AperFunction*%
%TO.P,R1,1*%
%TO.N,Net-(R1-Pad1)*%
%TA.AperFunction,SMDPad,CuDef*%
G36*
G01*
X41979001Y-93269500D02*
X41078999Y-93269500D01*
G75*
G02*
X40829000Y-93019501I0J249999D01*
G01*
X40829000Y-92494499D01*
G75*
G02*
X41078999Y-92244500I249999J0D01*
G01*
X41979001Y-92244500D01*
G75*
G02*
X42229000Y-92494499I0J-249999D01*
G01*
X42229000Y-93019501D01*
G75*
G02*
X41979001Y-93269500I-249999J0D01*
G01*
G37*
%TD.AperFunction*%
%TD*%
D16*
%TO.P,MX4,4*%
%TO.N,N/C*%
X109220000Y-113030000D03*
D17*
%TO.P,MX4,3*%
X106680000Y-113030000D03*
D18*
%TO.P,MX4,1*%
%TO.N,COL1*%
X105450000Y-103950000D03*
%TA.AperFunction,ComponentPad*%
G36*
G01*
X103388688Y-106247350D02*
X103388683Y-106247345D01*
G75*
G02*
X103302655Y-104658683I751317J837345D01*
G01*
X104612657Y-103198683D01*
G75*
G02*
X106201319Y-103112655I837345J-751317D01*
G01*
X106201319Y-103112655D01*
G75*
G02*
X106287347Y-104701317I-751317J-837345D01*
G01*
X104977345Y-106161317D01*
G75*
G02*
X103388683Y-106247345I-837345J751317D01*
G01*
G37*
%TD.AperFunction*%
%TO.P,MX4,2*%
%TO.N,Net-(D4-Pad2)*%
X110490000Y-102870000D03*
%TA.AperFunction,ComponentPad*%
G36*
G01*
X110373483Y-104572395D02*
X110372597Y-104572334D01*
G75*
G02*
X109327666Y-103372597I77403J1122334D01*
G01*
X109367666Y-102792597D01*
G75*
G02*
X110567403Y-101747666I1122334J-77403D01*
G01*
X110567403Y-101747666D01*
G75*
G02*
X111612334Y-102947403I-77403J-1122334D01*
G01*
X111572334Y-103527403D01*
G75*
G02*
X110372597Y-104572334I-1122334J77403D01*
G01*
G37*
%TD.AperFunction*%
%TD*%
%TO.P,MX3,2*%
%TO.N,Net-(D3-Pad2)*%
%TA.AperFunction,ComponentPad*%
G36*
G01*
X110373483Y-85522395D02*
X110372597Y-85522334D01*
G75*
G02*
X109327666Y-84322597I77403J1122334D01*
G01*
X109367666Y-83742597D01*
G75*
G02*
X110567403Y-82697666I1122334J-77403D01*
G01*
X110567403Y-82697666D01*
G75*
G02*
X111612334Y-83897403I-77403J-1122334D01*
G01*
X111572334Y-84477403D01*
G75*
G02*
X110372597Y-85522334I-1122334J77403D01*
G01*
G37*
%TD.AperFunction*%
X110490000Y-83820000D03*
%TO.P,MX3,1*%
%TO.N,COL1*%
%TA.AperFunction,ComponentPad*%
G36*
G01*
X103388688Y-87197350D02*
X103388683Y-87197345D01*
G75*
G02*
X103302655Y-85608683I751317J837345D01*
G01*
X104612657Y-84148683D01*
G75*
G02*
X106201319Y-84062655I837345J-751317D01*
G01*
X106201319Y-84062655D01*
G75*
G02*
X106287347Y-85651317I-751317J-837345D01*
G01*
X104977345Y-87111317D01*
G75*
G02*
X103388683Y-87197345I-837345J751317D01*
G01*
G37*
%TD.AperFunction*%
X105450000Y-84900000D03*
D17*
%TO.P,MX3,3*%
%TO.N,N/C*%
X106680000Y-93980000D03*
D16*
%TO.P,MX3,4*%
X109220000Y-93980000D03*
%TD*%
%TO.P,MX2,4*%
%TO.N,N/C*%
X90170000Y-113030000D03*
D17*
%TO.P,MX2,3*%
X87630000Y-113030000D03*
D18*
%TO.P,MX2,1*%
%TO.N,COL0*%
X86400000Y-103950000D03*
%TA.AperFunction,ComponentPad*%
G36*
G01*
X84338688Y-106247350D02*
X84338683Y-106247345D01*
G75*
G02*
X84252655Y-104658683I751317J837345D01*
G01*
X85562657Y-103198683D01*
G75*
G02*
X87151319Y-103112655I837345J-751317D01*
G01*
X87151319Y-103112655D01*
G75*
G02*
X87237347Y-104701317I-751317J-837345D01*
G01*
X85927345Y-106161317D01*
G75*
G02*
X84338683Y-106247345I-837345J751317D01*
G01*
G37*
%TD.AperFunction*%
%TO.P,MX2,2*%
%TO.N,Net-(D2-Pad2)*%
X91440000Y-102870000D03*
%TA.AperFunction,ComponentPad*%
G36*
G01*
X91323483Y-104572395D02*
X91322597Y-104572334D01*
G75*
G02*
X90277666Y-103372597I77403J1122334D01*
G01*
X90317666Y-102792597D01*
G75*
G02*
X91517403Y-101747666I1122334J-77403D01*
G01*
X91517403Y-101747666D01*
G75*
G02*
X92562334Y-102947403I-77403J-1122334D01*
G01*
X92522334Y-103527403D01*
G75*
G02*
X91322597Y-104572334I-1122334J77403D01*
G01*
G37*
%TD.AperFunction*%
%TD*%
D16*
%TO.P,MX1,4*%
%TO.N,N/C*%
X90170000Y-93980000D03*
D17*
%TO.P,MX1,3*%
X87630000Y-93980000D03*
D18*
%TO.P,MX1,1*%
%TO.N,COL0*%
X86400000Y-84900000D03*
%TA.AperFunction,ComponentPad*%
G36*
G01*
X84338688Y-87197350D02*
X84338683Y-87197345D01*
G75*
G02*
X84252655Y-85608683I751317J837345D01*
G01*
X85562657Y-84148683D01*
G75*
G02*
X87151319Y-84062655I837345J-751317D01*
G01*
X87151319Y-84062655D01*
G75*
G02*
X87237347Y-85651317I-751317J-837345D01*
G01*
X85927345Y-87111317D01*
G75*
G02*
X84338683Y-87197345I-837345J751317D01*
G01*
G37*
%TD.AperFunction*%
%TO.P,MX1,2*%
%TO.N,Net-(D1-Pad2)*%
X91440000Y-83820000D03*
%TA.AperFunction,ComponentPad*%
G36*
G01*
X91323483Y-85522395D02*
X91322597Y-85522334D01*
G75*
G02*
X90277666Y-84322597I77403J1122334D01*
G01*
X90317666Y-83742597D01*
G75*
G02*
X91517403Y-82697666I1122334J-77403D01*
G01*
X91517403Y-82697666D01*
G75*
G02*
X92562334Y-83897403I-77403J-1122334D01*
G01*
X92522334Y-84477403D01*
G75*
G02*
X91322597Y-85522334I-1122334J77403D01*
G01*
G37*
%TD.AperFunction*%
%TD*%
%TO.P,F1,2*%
%TO.N,VCC*%
%TA.AperFunction,SMDPad,CuDef*%
G36*
G01*
X39360000Y-94097000D02*
X38110000Y-94097000D01*
G75*
G02*
X37860000Y-93847000I0J250000D01*
G01*
X37860000Y-93097000D01*
G75*
G02*
X38110000Y-92847000I250000J0D01*
G01*
X39360000Y-92847000D01*
G75*
G02*
X39610000Y-93097000I0J-250000D01*
G01*
X39610000Y-93847000D01*
G75*
G02*
X39360000Y-94097000I-250000J0D01*
G01*
G37*
%TD.AperFunction*%
%TO.P,F1,1*%
%TO.N,+5V*%
%TA.AperFunction,SMDPad,CuDef*%
G36*
G01*
X39360000Y-96897000D02*
X38110000Y-96897000D01*
G75*
G02*
X37860000Y-96647000I0J250000D01*
G01*
X37860000Y-95897000D01*
G75*
G02*
X38110000Y-95647000I250000J0D01*
G01*
X39360000Y-95647000D01*
G75*
G02*
X39610000Y-95897000I0J-250000D01*
G01*
X39610000Y-96647000D01*
G75*
G02*
X39360000Y-96897000I-250000J0D01*
G01*
G37*
%TD.AperFunction*%
%TD*%
D19*
%TO.P,D4,2*%
%TO.N,Net-(D4-Pad2)*%
X115443000Y-106172000D03*
%TO.P,D4,1*%
%TO.N,ROW1*%
X115443000Y-109472000D03*
%TD*%
%TO.P,D3,2*%
%TO.N,Net-(D3-Pad2)*%
X115443000Y-87122000D03*
%TO.P,D3,1*%
%TO.N,ROW0*%
X115443000Y-90422000D03*
%TD*%
%TO.P,D2,2*%
%TO.N,Net-(D2-Pad2)*%
X96393000Y-106045000D03*
%TO.P,D2,1*%
%TO.N,ROW1*%
X96393000Y-109345000D03*
%TD*%
%TO.P,D1,2*%
%TO.N,Net-(D1-Pad2)*%
X96393000Y-87122000D03*
%TO.P,D1,1*%
%TO.N,ROW0*%
X96393000Y-90422000D03*
%TD*%
%TO.P,C7,2*%
%TO.N,GND*%
%TA.AperFunction,SMDPad,CuDef*%
G36*
G01*
X62518750Y-109218750D02*
X62518750Y-108268750D01*
G75*
G02*
X62768750Y-108018750I250000J0D01*
G01*
X63268750Y-108018750D01*
G75*
G02*
X63518750Y-108268750I0J-250000D01*
G01*
X63518750Y-109218750D01*
G75*
G02*
X63268750Y-109468750I-250000J0D01*
G01*
X62768750Y-109468750D01*
G75*
G02*
X62518750Y-109218750I0J250000D01*
G01*
G37*
%TD.AperFunction*%
%TO.P,C7,1*%
%TO.N,+5V*%
%TA.AperFunction,SMDPad,CuDef*%
G36*
G01*
X60618750Y-109218750D02*
X60618750Y-108268750D01*
G75*
G02*
X60868750Y-108018750I250000J0D01*
G01*
X61368750Y-108018750D01*
G75*
G02*
X61618750Y-108268750I0J-250000D01*
G01*
X61618750Y-109218750D01*
G75*
G02*
X61368750Y-109468750I-250000J0D01*
G01*
X60868750Y-109468750D01*
G75*
G02*
X60618750Y-109218750I0J250000D01*
G01*
G37*
%TD.AperFunction*%
%TD*%
%TO.P,C6,2*%
%TO.N,GND*%
%TA.AperFunction,SMDPad,CuDef*%
G36*
G01*
X53693000Y-98494000D02*
X54643000Y-98494000D01*
G75*
G02*
X54893000Y-98744000I0J-250000D01*
G01*
X54893000Y-99244000D01*
G75*
G02*
X54643000Y-99494000I-250000J0D01*
G01*
X53693000Y-99494000D01*
G75*
G02*
X53443000Y-99244000I0J250000D01*
G01*
X53443000Y-98744000D01*
G75*
G02*
X53693000Y-98494000I250000J0D01*
G01*
G37*
%TD.AperFunction*%
%TO.P,C6,1*%
%TO.N,Net-(C6-Pad1)*%
%TA.AperFunction,SMDPad,CuDef*%
G36*
G01*
X53693000Y-96594000D02*
X54643000Y-96594000D01*
G75*
G02*
X54893000Y-96844000I0J-250000D01*
G01*
X54893000Y-97344000D01*
G75*
G02*
X54643000Y-97594000I-250000J0D01*
G01*
X53693000Y-97594000D01*
G75*
G02*
X53443000Y-97344000I0J250000D01*
G01*
X53443000Y-96844000D01*
G75*
G02*
X53693000Y-96594000I250000J0D01*
G01*
G37*
%TD.AperFunction*%
%TD*%
%TO.P,C5,2*%
%TO.N,GND*%
%TA.AperFunction,SMDPad,CuDef*%
G36*
G01*
X75151000Y-94734000D02*
X74201000Y-94734000D01*
G75*
G02*
X73951000Y-94484000I0J250000D01*
G01*
X73951000Y-93984000D01*
G75*
G02*
X74201000Y-93734000I250000J0D01*
G01*
X75151000Y-93734000D01*
G75*
G02*
X75401000Y-93984000I0J-250000D01*
G01*
X75401000Y-94484000D01*
G75*
G02*
X75151000Y-94734000I-250000J0D01*
G01*
G37*
%TD.AperFunction*%
%TO.P,C5,1*%
%TO.N,+5V*%
%TA.AperFunction,SMDPad,CuDef*%
G36*
G01*
X75151000Y-96634000D02*
X74201000Y-96634000D01*
G75*
G02*
X73951000Y-96384000I0J250000D01*
G01*
X73951000Y-95884000D01*
G75*
G02*
X74201000Y-95634000I250000J0D01*
G01*
X75151000Y-95634000D01*
G75*
G02*
X75401000Y-95884000I0J-250000D01*
G01*
X75401000Y-96384000D01*
G75*
G02*
X75151000Y-96634000I-250000J0D01*
G01*
G37*
%TD.AperFunction*%
%TD*%
%TO.P,C4,2*%
%TO.N,GND*%
%TA.AperFunction,SMDPad,CuDef*%
G36*
G01*
X59850000Y-87760000D02*
X60800000Y-87760000D01*
G75*
G02*
X61050000Y-88010000I0J-250000D01*
G01*
X61050000Y-88510000D01*
G75*
G02*
X60800000Y-88760000I-250000J0D01*
G01*
X59850000Y-88760000D01*
G75*
G02*
X59600000Y-88510000I0J250000D01*
G01*
X59600000Y-88010000D01*
G75*
G02*
X59850000Y-87760000I250000J0D01*
G01*
G37*
%TD.AperFunction*%
%TO.P,C4,1*%
%TO.N,Net-(C4-Pad1)*%
%TA.AperFunction,SMDPad,CuDef*%
G36*
G01*
X59850000Y-85860000D02*
X60800000Y-85860000D01*
G75*
G02*
X61050000Y-86110000I0J-250000D01*
G01*
X61050000Y-86610000D01*
G75*
G02*
X60800000Y-86860000I-250000J0D01*
G01*
X59850000Y-86860000D01*
G75*
G02*
X59600000Y-86610000I0J250000D01*
G01*
X59600000Y-86110000D01*
G75*
G02*
X59850000Y-85860000I250000J0D01*
G01*
G37*
%TD.AperFunction*%
%TD*%
%TO.P,C3,2*%
%TO.N,GND*%
%TA.AperFunction,SMDPad,CuDef*%
G36*
G01*
X69944000Y-86860000D02*
X68994000Y-86860000D01*
G75*
G02*
X68744000Y-86610000I0J250000D01*
G01*
X68744000Y-86110000D01*
G75*
G02*
X68994000Y-85860000I250000J0D01*
G01*
X69944000Y-85860000D01*
G75*
G02*
X70194000Y-86110000I0J-250000D01*
G01*
X70194000Y-86610000D01*
G75*
G02*
X69944000Y-86860000I-250000J0D01*
G01*
G37*
%TD.AperFunction*%
%TO.P,C3,1*%
%TO.N,Net-(C3-Pad1)*%
%TA.AperFunction,SMDPad,CuDef*%
G36*
G01*
X69944000Y-88760000D02*
X68994000Y-88760000D01*
G75*
G02*
X68744000Y-88510000I0J250000D01*
G01*
X68744000Y-88010000D01*
G75*
G02*
X68994000Y-87760000I250000J0D01*
G01*
X69944000Y-87760000D01*
G75*
G02*
X70194000Y-88010000I0J-250000D01*
G01*
X70194000Y-88510000D01*
G75*
G02*
X69944000Y-88760000I-250000J0D01*
G01*
G37*
%TD.AperFunction*%
%TD*%
%TO.P,C2,2*%
%TO.N,GND*%
%TA.AperFunction,SMDPad,CuDef*%
G36*
G01*
X67175000Y-108268750D02*
X67175000Y-109218750D01*
G75*
G02*
X66925000Y-109468750I-250000J0D01*
G01*
X66425000Y-109468750D01*
G75*
G02*
X66175000Y-109218750I0J250000D01*
G01*
X66175000Y-108268750D01*
G75*
G02*
X66425000Y-108018750I250000J0D01*
G01*
X66925000Y-108018750D01*
G75*
G02*
X67175000Y-108268750I0J-250000D01*
G01*
G37*
%TD.AperFunction*%
%TO.P,C2,1*%
%TO.N,+5V*%
%TA.AperFunction,SMDPad,CuDef*%
G36*
G01*
X69075000Y-108268750D02*
X69075000Y-109218750D01*
G75*
G02*
X68825000Y-109468750I-250000J0D01*
G01*
X68325000Y-109468750D01*
G75*
G02*
X68075000Y-109218750I0J250000D01*
G01*
X68075000Y-108268750D01*
G75*
G02*
X68325000Y-108018750I250000J0D01*
G01*
X68825000Y-108018750D01*
G75*
G02*
X69075000Y-108268750I0J-250000D01*
G01*
G37*
%TD.AperFunction*%
%TD*%
%TO.P,C1,2*%
%TO.N,GND*%
%TA.AperFunction,SMDPad,CuDef*%
G36*
G01*
X57371000Y-90162000D02*
X56421000Y-90162000D01*
G75*
G02*
X56171000Y-89912000I0J250000D01*
G01*
X56171000Y-89412000D01*
G75*
G02*
X56421000Y-89162000I250000J0D01*
G01*
X57371000Y-89162000D01*
G75*
G02*
X57621000Y-89412000I0J-250000D01*
G01*
X57621000Y-89912000D01*
G75*
G02*
X57371000Y-90162000I-250000J0D01*
G01*
G37*
%TD.AperFunction*%
%TO.P,C1,1*%
%TO.N,+5V*%
%TA.AperFunction,SMDPad,CuDef*%
G36*
G01*
X57371000Y-92062000D02*
X56421000Y-92062000D01*
G75*
G02*
X56171000Y-91812000I0J250000D01*
G01*
X56171000Y-91312000D01*
G75*
G02*
X56421000Y-91062000I250000J0D01*
G01*
X57371000Y-91062000D01*
G75*
G02*
X57621000Y-91312000I0J-250000D01*
G01*
X57621000Y-91812000D01*
G75*
G02*
X57371000Y-92062000I-250000J0D01*
G01*
G37*
%TD.AperFunction*%
%TD*%
D20*
%TO.N,GND*%
X50800000Y-104140000D03*
X50800000Y-97790000D03*
X52070000Y-93980000D03*
X49530000Y-90170000D03*
%TO.N,+5V*%
X57531000Y-101981000D03*
X57537250Y-97910750D03*
%TO.N,Net-(R3-Pad2)*%
X46228000Y-103632000D03*
X46282500Y-98098500D03*
%TD*%
D21*
%TO.N,GND*%
X69342000Y-86487000D02*
X69469000Y-86360000D01*
X66071750Y-86487000D02*
X69342000Y-86487000D01*
X59209490Y-87144490D02*
X60325000Y-88260000D01*
X59209490Y-85844690D02*
X59209490Y-87144490D01*
X59584690Y-85469490D02*
X59209490Y-85844690D01*
X65054240Y-85469490D02*
X59584690Y-85469490D01*
X66071750Y-86487000D02*
X65054240Y-85469490D01*
X64068848Y-88187000D02*
X63871750Y-88187000D01*
X65768848Y-86487000D02*
X64068848Y-88187000D01*
X66071750Y-86487000D02*
X65768848Y-86487000D01*
X63297000Y-91232000D02*
X63297000Y-93010750D01*
X61595000Y-89662000D02*
X61661000Y-89596000D01*
X61661000Y-89596000D02*
X63297000Y-91232000D01*
X60325000Y-88260000D02*
X61661000Y-89596000D01*
X61727000Y-89662000D02*
X63297000Y-91232000D01*
X61595000Y-89662000D02*
X61727000Y-89662000D01*
X70597000Y-94710750D02*
X74199250Y-94710750D01*
X54684750Y-99510750D02*
X59197000Y-99510750D01*
X54168000Y-98994000D02*
X54684750Y-99510750D01*
X74199250Y-94710750D02*
X74676000Y-94234000D01*
X60876152Y-89662000D02*
X61595000Y-89662000D01*
X56896000Y-89662000D02*
X60876152Y-89662000D01*
X61697000Y-107422000D02*
X61697000Y-104410750D01*
X63018750Y-108743750D02*
X61697000Y-107422000D01*
X68097000Y-107321750D02*
X68097000Y-104410750D01*
X66675000Y-108743750D02*
X68097000Y-107321750D01*
X60124902Y-99510750D02*
X59197000Y-99510750D01*
X61697000Y-101082848D02*
X60124902Y-99510750D01*
X61697000Y-104410750D02*
X61697000Y-101082848D01*
X55992990Y-88758990D02*
X56896000Y-89662000D01*
X63297000Y-94141750D02*
X64913250Y-95758000D01*
X63297000Y-93010750D02*
X63297000Y-94141750D01*
X64913250Y-95758000D02*
X67945000Y-95758000D01*
X68992250Y-94710750D02*
X70597000Y-94710750D01*
X67945000Y-95758000D02*
X68992250Y-94710750D01*
X65724902Y-99510750D02*
X59197000Y-99510750D01*
X69592152Y-103378000D02*
X65724902Y-99510750D01*
X71657652Y-103378000D02*
X69592152Y-103378000D01*
X68309599Y-103270249D02*
X69484401Y-103270249D01*
X68097000Y-103482848D02*
X68309599Y-103270249D01*
X69484401Y-103270249D02*
X69592152Y-103378000D01*
X68097000Y-104410750D02*
X68097000Y-103482848D01*
X72720652Y-104441000D02*
X71657652Y-103378000D01*
X74549000Y-104441000D02*
X72720652Y-104441000D01*
X54168000Y-98994000D02*
X53052490Y-97878490D01*
X46612499Y-108327501D02*
X50800000Y-104140000D01*
X36702501Y-108327501D02*
X46612499Y-108327501D01*
X35762000Y-107387000D02*
X36702501Y-108327501D01*
X52964000Y-97790000D02*
X53052490Y-97878490D01*
X50800000Y-97790000D02*
X52964000Y-97790000D01*
X52964000Y-94874000D02*
X52070000Y-93980000D01*
X52964000Y-97790000D02*
X52964000Y-94874000D01*
X49530000Y-88773000D02*
X49544010Y-88758990D01*
X49530000Y-90170000D02*
X49530000Y-88773000D01*
X49544010Y-88758990D02*
X55992990Y-88758990D01*
X47554644Y-88758990D02*
X49544010Y-88758990D01*
X45256250Y-86256250D02*
X45256250Y-86460596D01*
X45256250Y-86460596D02*
X47554644Y-88758990D01*
%TO.N,+5V*%
X74052750Y-95510750D02*
X70597000Y-95510750D01*
X74676000Y-96134000D02*
X74052750Y-95510750D01*
X62497000Y-92082848D02*
X62497000Y-93010750D01*
X61976152Y-91562000D02*
X62497000Y-92082848D01*
X56896000Y-91562000D02*
X61976152Y-91562000D01*
X60897000Y-108522000D02*
X60897000Y-104410750D01*
X61118750Y-108743750D02*
X60897000Y-108522000D01*
X68897000Y-108421750D02*
X68575000Y-108743750D01*
X68897000Y-104410750D02*
X68897000Y-108421750D01*
X60124902Y-101910750D02*
X59197000Y-101910750D01*
X60897000Y-102682848D02*
X60124902Y-101910750D01*
X60897000Y-104410750D02*
X60897000Y-102682848D01*
X59197000Y-97910750D02*
X57537250Y-97910750D01*
X54996000Y-89662000D02*
X56896000Y-91562000D01*
X53594000Y-89662000D02*
X54996000Y-89662000D01*
X57601250Y-101910750D02*
X57531000Y-101981000D01*
X59197000Y-101910750D02*
X57601250Y-101910750D01*
X68840838Y-96339010D02*
X69669098Y-95510750D01*
X64672588Y-96339010D02*
X68840838Y-96339010D01*
X62497000Y-94163422D02*
X64672588Y-96339010D01*
X69669098Y-95510750D02*
X70597000Y-95510750D01*
X62497000Y-93010750D02*
X62497000Y-94163422D01*
X60124902Y-97910750D02*
X59197000Y-97910750D01*
X62497000Y-95538652D02*
X60124902Y-97910750D01*
X62497000Y-94163422D02*
X62497000Y-95538652D01*
X51402010Y-91853990D02*
X53594000Y-89662000D01*
X40438490Y-92229190D02*
X40813690Y-91853990D01*
X40438490Y-94568510D02*
X40438490Y-92229190D01*
X40813690Y-91853990D02*
X51402010Y-91853990D01*
X38735000Y-96272000D02*
X40438490Y-94568510D01*
D22*
%TO.N,Net-(C3-Pad1)*%
X66144750Y-88260000D02*
X66071750Y-88187000D01*
X64897000Y-89361750D02*
X64897000Y-93010750D01*
X66071750Y-88187000D02*
X64897000Y-89361750D01*
X69396000Y-88187000D02*
X69469000Y-88260000D01*
X66071750Y-88187000D02*
X69396000Y-88187000D01*
%TO.N,Net-(C4-Pad1)*%
X63744750Y-86360000D02*
X63871750Y-86487000D01*
X60325000Y-86360000D02*
X63744750Y-86360000D01*
X64097000Y-92006750D02*
X64097000Y-93010750D01*
X62844749Y-90047881D02*
X64097000Y-91300132D01*
X62844749Y-86560001D02*
X62844749Y-90047881D01*
X62917750Y-86487000D02*
X62844749Y-86560001D01*
X64097000Y-91300132D02*
X64097000Y-93010750D01*
X63871750Y-86487000D02*
X62917750Y-86487000D01*
%TO.N,Net-(C6-Pad1)*%
X55784750Y-98710750D02*
X59197000Y-98710750D01*
X54168000Y-97094000D02*
X55784750Y-98710750D01*
%TO.N,Net-(D1-Pad2)*%
X94122000Y-87122000D02*
X91400000Y-84400000D01*
X96393000Y-87122000D02*
X94122000Y-87122000D01*
%TO.N,ROW0*%
X88904250Y-97910750D02*
X96393000Y-90422000D01*
X70597000Y-97910750D02*
X88904250Y-97910750D01*
X114644099Y-91220901D02*
X115443000Y-90422000D01*
X96487901Y-91220901D02*
X114644099Y-91220901D01*
X96393000Y-91126000D02*
X96487901Y-91220901D01*
X96393000Y-90422000D02*
X96393000Y-91126000D01*
%TO.N,Net-(D2-Pad2)*%
X93798000Y-103450000D02*
X96393000Y-106045000D01*
X91400000Y-103450000D02*
X93798000Y-103450000D01*
%TO.N,ROW1*%
X95467099Y-110270901D02*
X96393000Y-109345000D01*
X87854462Y-110270901D02*
X95467099Y-110270901D01*
X77894311Y-100310750D02*
X87854462Y-110270901D01*
X70597000Y-100310750D02*
X77894311Y-100310750D01*
X114644099Y-110270901D02*
X115443000Y-109472000D01*
X97318901Y-110270901D02*
X114644099Y-110270901D01*
X96393000Y-109345000D02*
X97318901Y-110270901D01*
%TO.N,Net-(D3-Pad2)*%
X112721000Y-84400000D02*
X115443000Y-87122000D01*
X110450000Y-84400000D02*
X112721000Y-84400000D01*
%TO.N,Net-(D4-Pad2)*%
X113792000Y-106172000D02*
X110490000Y-102870000D01*
X115443000Y-106172000D02*
X113792000Y-106172000D01*
%TO.N,VCC*%
X38735000Y-89692043D02*
X40289043Y-88138000D01*
X38735000Y-93472000D02*
X38735000Y-89692043D01*
X40289043Y-88138000D02*
X41529000Y-88138000D01*
X42056250Y-86370793D02*
X42056250Y-86256250D01*
X41529000Y-88138000D02*
X42056250Y-87610750D01*
X42056250Y-87610750D02*
X42056250Y-86256250D01*
%TO.N,COL0*%
X81960750Y-99510750D02*
X86400000Y-103950000D01*
X70597000Y-99510750D02*
X81960750Y-99510750D01*
%TO.N,D-*%
X41529000Y-90932000D02*
X41529000Y-90805000D01*
X41529000Y-90932000D02*
X42856250Y-89604750D01*
X42926000Y-86326000D02*
X42856250Y-86256250D01*
X42856250Y-89604750D02*
X42856250Y-86256250D01*
%TO.N,Net-(R1-Pad1)*%
X59178250Y-101092000D02*
X59197000Y-101110750D01*
X42852990Y-101018990D02*
X42926000Y-101092000D01*
X41529000Y-93726000D02*
X42852990Y-95049990D01*
X41529000Y-92757000D02*
X41529000Y-93726000D01*
X42852990Y-95049990D02*
X42852990Y-101018990D01*
X42926000Y-101092000D02*
X59178250Y-101092000D01*
%TO.N,D+*%
X44704000Y-90932000D02*
X43656250Y-89884250D01*
X44704000Y-90932000D02*
X44704000Y-90424000D01*
X43688000Y-86288000D02*
X43656250Y-86256250D01*
X43656250Y-89884250D02*
X43656250Y-86256250D01*
%TO.N,Net-(R2-Pad1)*%
X59177750Y-100330000D02*
X59197000Y-100310750D01*
X43307000Y-100330000D02*
X59177750Y-100330000D01*
X44704000Y-93599000D02*
X43307000Y-94996000D01*
X44704000Y-92757000D02*
X44704000Y-93599000D01*
X43307000Y-94996000D02*
X43307000Y-100330000D01*
%TO.N,Net-(R3-Pad2)*%
X61697000Y-93824352D02*
X61697000Y-93010750D01*
X54496010Y-92389010D02*
X59883990Y-92389010D01*
X53594000Y-91487000D02*
X54496010Y-92389010D01*
X61697000Y-94014750D02*
X61697000Y-93010750D01*
X61623999Y-94087751D02*
X61697000Y-94014750D01*
X60360399Y-94087751D02*
X61623999Y-94087751D01*
X59883990Y-93611342D02*
X60360399Y-94087751D01*
X59883990Y-92389010D02*
X59883990Y-93611342D01*
X53594000Y-91487000D02*
X52894000Y-91487000D01*
X41962000Y-103687000D02*
X46046000Y-103687000D01*
X52894000Y-91487000D02*
X46282500Y-98098500D01*
X46282500Y-98098500D02*
X51001001Y-93379999D01*
X46046000Y-103687000D02*
X46283000Y-103687000D01*
X46282500Y-98098500D02*
X46282500Y-98098500D01*
X46283000Y-103687000D02*
X46228000Y-103632000D01*
%TO.N,Net-(R4-Pad2)*%
X70691750Y-102616000D02*
X70597000Y-102710750D01*
X74549000Y-102616000D02*
X70691750Y-102616000D01*
%TD*%
%TO.N,GND*%
X73533000Y-91821952D02*
X69657266Y-91851093D01*
X69623185Y-91809565D01*
X69526494Y-91730213D01*
X69416180Y-91671248D01*
X69296482Y-91634938D01*
X69172000Y-91622678D01*
X68622000Y-91622678D01*
X68497518Y-91634938D01*
X68497000Y-91635095D01*
X68496482Y-91634938D01*
X68372000Y-91622678D01*
X67822000Y-91622678D01*
X67697518Y-91634938D01*
X67697000Y-91635095D01*
X67696482Y-91634938D01*
X67572000Y-91622678D01*
X67022000Y-91622678D01*
X66897518Y-91634938D01*
X66897000Y-91635095D01*
X66896482Y-91634938D01*
X66772000Y-91622678D01*
X66222000Y-91622678D01*
X66097518Y-91634938D01*
X66097000Y-91635095D01*
X66096482Y-91634938D01*
X65972000Y-91622678D01*
X65659000Y-91622678D01*
X65659000Y-89677380D01*
X65911308Y-89425072D01*
X66771750Y-89425072D01*
X66896232Y-89412812D01*
X67015930Y-89376502D01*
X67126244Y-89317537D01*
X67222935Y-89238185D01*
X67302287Y-89141494D01*
X67361252Y-89031180D01*
X67386181Y-88949000D01*
X68226525Y-88949000D01*
X68255595Y-89003386D01*
X68366038Y-89137962D01*
X68500614Y-89248405D01*
X68654150Y-89330472D01*
X68820746Y-89381008D01*
X68994000Y-89398072D01*
X69944000Y-89398072D01*
X70117254Y-89381008D01*
X70283850Y-89330472D01*
X70437386Y-89248405D01*
X70571962Y-89137962D01*
X70682405Y-89003386D01*
X70764472Y-88849850D01*
X70815008Y-88683254D01*
X70832072Y-88510000D01*
X70832072Y-88010000D01*
X70815008Y-87836746D01*
X70764472Y-87670150D01*
X70682405Y-87516614D01*
X70571962Y-87382038D01*
X70565406Y-87376658D01*
X70645185Y-87311185D01*
X70724537Y-87214494D01*
X70783502Y-87104180D01*
X70819812Y-86984482D01*
X70832072Y-86860000D01*
X70829000Y-86645750D01*
X70670250Y-86487000D01*
X69596000Y-86487000D01*
X69596000Y-86507000D01*
X69342000Y-86507000D01*
X69342000Y-86487000D01*
X68267750Y-86487000D01*
X68109000Y-86645750D01*
X68105928Y-86860000D01*
X68118188Y-86984482D01*
X68154498Y-87104180D01*
X68213463Y-87214494D01*
X68292815Y-87311185D01*
X68372594Y-87376658D01*
X68366038Y-87382038D01*
X68330780Y-87425000D01*
X67386181Y-87425000D01*
X67361252Y-87342820D01*
X67358141Y-87337000D01*
X67361252Y-87331180D01*
X67397562Y-87211482D01*
X67409822Y-87087000D01*
X67406750Y-86772750D01*
X67248000Y-86614000D01*
X66198750Y-86614000D01*
X66198750Y-86634000D01*
X65944750Y-86634000D01*
X65944750Y-86614000D01*
X65924750Y-86614000D01*
X65924750Y-86360000D01*
X65944750Y-86360000D01*
X65944750Y-85410750D01*
X66198750Y-85410750D01*
X66198750Y-86360000D01*
X67248000Y-86360000D01*
X67406750Y-86201250D01*
X67409822Y-85887000D01*
X67407163Y-85860000D01*
X68105928Y-85860000D01*
X68109000Y-86074250D01*
X68267750Y-86233000D01*
X69342000Y-86233000D01*
X69342000Y-85383750D01*
X69596000Y-85383750D01*
X69596000Y-86233000D01*
X70670250Y-86233000D01*
X70829000Y-86074250D01*
X70832072Y-85860000D01*
X70819812Y-85735518D01*
X70783502Y-85615820D01*
X70724537Y-85505506D01*
X70645185Y-85408815D01*
X70548494Y-85329463D01*
X70438180Y-85270498D01*
X70318482Y-85234188D01*
X70194000Y-85221928D01*
X69754750Y-85225000D01*
X69596000Y-85383750D01*
X69342000Y-85383750D01*
X69183250Y-85225000D01*
X68744000Y-85221928D01*
X68619518Y-85234188D01*
X68499820Y-85270498D01*
X68389506Y-85329463D01*
X68292815Y-85408815D01*
X68213463Y-85505506D01*
X68154498Y-85615820D01*
X68118188Y-85735518D01*
X68105928Y-85860000D01*
X67407163Y-85860000D01*
X67397562Y-85762518D01*
X67361252Y-85642820D01*
X67302287Y-85532506D01*
X67222935Y-85435815D01*
X67126244Y-85356463D01*
X67015930Y-85297498D01*
X66896232Y-85261188D01*
X66771750Y-85248928D01*
X66357500Y-85252000D01*
X66198750Y-85410750D01*
X65944750Y-85410750D01*
X65786000Y-85252000D01*
X65371750Y-85248928D01*
X65247268Y-85261188D01*
X65127570Y-85297498D01*
X65017256Y-85356463D01*
X64971750Y-85393809D01*
X64926244Y-85356463D01*
X64815930Y-85297498D01*
X64696232Y-85261188D01*
X64571750Y-85248928D01*
X63171750Y-85248928D01*
X63047268Y-85261188D01*
X62927570Y-85297498D01*
X62817256Y-85356463D01*
X62720565Y-85435815D01*
X62641213Y-85532506D01*
X62606205Y-85598000D01*
X61523129Y-85598000D01*
X61427962Y-85482038D01*
X61293386Y-85371595D01*
X61139850Y-85289528D01*
X60973254Y-85238992D01*
X60800000Y-85221928D01*
X59850000Y-85221928D01*
X59676746Y-85238992D01*
X59510150Y-85289528D01*
X59356614Y-85371595D01*
X59222038Y-85482038D01*
X59111595Y-85616614D01*
X59029528Y-85770150D01*
X58978992Y-85936746D01*
X58961928Y-86110000D01*
X58961928Y-86610000D01*
X58978992Y-86783254D01*
X59029528Y-86949850D01*
X59111595Y-87103386D01*
X59222038Y-87237962D01*
X59228594Y-87243342D01*
X59148815Y-87308815D01*
X59069463Y-87405506D01*
X59010498Y-87515820D01*
X58974188Y-87635518D01*
X58961928Y-87760000D01*
X58965000Y-87974250D01*
X59123750Y-88133000D01*
X60198000Y-88133000D01*
X60198000Y-88113000D01*
X60452000Y-88113000D01*
X60452000Y-88133000D01*
X61526250Y-88133000D01*
X61685000Y-87974250D01*
X61688072Y-87760000D01*
X61675812Y-87635518D01*
X61639502Y-87515820D01*
X61580537Y-87405506D01*
X61501185Y-87308815D01*
X61421406Y-87243342D01*
X61427962Y-87237962D01*
X61523129Y-87122000D01*
X62082749Y-87122000D01*
X62082750Y-90010448D01*
X62079063Y-90047881D01*
X62093776Y-90197259D01*
X62137348Y-90340896D01*
X62208104Y-90473273D01*
X62223086Y-90491528D01*
X62303328Y-90589303D01*
X62332398Y-90613160D01*
X63335000Y-91615763D01*
X63335000Y-91853205D01*
X63302133Y-91893255D01*
X63263353Y-91765414D01*
X63213020Y-91671248D01*
X63186699Y-91622005D01*
X63153340Y-91581358D01*
X63083541Y-91496307D01*
X63052035Y-91470451D01*
X62588550Y-91006966D01*
X62562693Y-90975459D01*
X62436994Y-90872301D01*
X62293586Y-90795647D01*
X62137978Y-90748444D01*
X62016705Y-90736500D01*
X62016702Y-90736500D01*
X61976152Y-90732506D01*
X61935602Y-90736500D01*
X58042016Y-90736500D01*
X57998962Y-90684038D01*
X57992406Y-90678658D01*
X58072185Y-90613185D01*
X58151537Y-90516494D01*
X58210502Y-90406180D01*
X58246812Y-90286482D01*
X58259072Y-90162000D01*
X58256000Y-89947750D01*
X58097250Y-89789000D01*
X57023000Y-89789000D01*
X57023000Y-89809000D01*
X56896000Y-89809000D01*
X56896000Y-89515000D01*
X57023000Y-89515000D01*
X57023000Y-89535000D01*
X58097250Y-89535000D01*
X58256000Y-89376250D01*
X58259072Y-89162000D01*
X58246812Y-89037518D01*
X58210502Y-88917820D01*
X58151537Y-88807506D01*
X58112550Y-88760000D01*
X58961928Y-88760000D01*
X58974188Y-88884482D01*
X59010498Y-89004180D01*
X59069463Y-89114494D01*
X59148815Y-89211185D01*
X59245506Y-89290537D01*
X59355820Y-89349502D01*
X59475518Y-89385812D01*
X59600000Y-89398072D01*
X60039250Y-89395000D01*
X60198000Y-89236250D01*
X60198000Y-88387000D01*
X60452000Y-88387000D01*
X60452000Y-89236250D01*
X60610750Y-89395000D01*
X61050000Y-89398072D01*
X61174482Y-89385812D01*
X61294180Y-89349502D01*
X61404494Y-89290537D01*
X61501185Y-89211185D01*
X61580537Y-89114494D01*
X61639502Y-89004180D01*
X61675812Y-88884482D01*
X61688072Y-88760000D01*
X61685000Y-88545750D01*
X61526250Y-88387000D01*
X60452000Y-88387000D01*
X60198000Y-88387000D01*
X59123750Y-88387000D01*
X58965000Y-88545750D01*
X58961928Y-88760000D01*
X58112550Y-88760000D01*
X58072185Y-88710815D01*
X57975494Y-88631463D01*
X57865180Y-88572498D01*
X57745482Y-88536188D01*
X57621000Y-88523928D01*
X57181750Y-88527000D01*
X57023002Y-88685748D01*
X57023002Y-88527000D01*
X56896000Y-88527000D01*
X56896000Y-82931000D01*
X73533000Y-82931000D01*
X73533000Y-91821952D01*
%TA.AperFunction,Conductor*%
D23*
G36*
X73533000Y-91821952D02*
G01*
X69657266Y-91851093D01*
X69623185Y-91809565D01*
X69526494Y-91730213D01*
X69416180Y-91671248D01*
X69296482Y-91634938D01*
X69172000Y-91622678D01*
X68622000Y-91622678D01*
X68497518Y-91634938D01*
X68497000Y-91635095D01*
X68496482Y-91634938D01*
X68372000Y-91622678D01*
X67822000Y-91622678D01*
X67697518Y-91634938D01*
X67697000Y-91635095D01*
X67696482Y-91634938D01*
X67572000Y-91622678D01*
X67022000Y-91622678D01*
X66897518Y-91634938D01*
X66897000Y-91635095D01*
X66896482Y-91634938D01*
X66772000Y-91622678D01*
X66222000Y-91622678D01*
X66097518Y-91634938D01*
X66097000Y-91635095D01*
X66096482Y-91634938D01*
X65972000Y-91622678D01*
X65659000Y-91622678D01*
X65659000Y-89677380D01*
X65911308Y-89425072D01*
X66771750Y-89425072D01*
X66896232Y-89412812D01*
X67015930Y-89376502D01*
X67126244Y-89317537D01*
X67222935Y-89238185D01*
X67302287Y-89141494D01*
X67361252Y-89031180D01*
X67386181Y-88949000D01*
X68226525Y-88949000D01*
X68255595Y-89003386D01*
X68366038Y-89137962D01*
X68500614Y-89248405D01*
X68654150Y-89330472D01*
X68820746Y-89381008D01*
X68994000Y-89398072D01*
X69944000Y-89398072D01*
X70117254Y-89381008D01*
X70283850Y-89330472D01*
X70437386Y-89248405D01*
X70571962Y-89137962D01*
X70682405Y-89003386D01*
X70764472Y-88849850D01*
X70815008Y-88683254D01*
X70832072Y-88510000D01*
X70832072Y-88010000D01*
X70815008Y-87836746D01*
X70764472Y-87670150D01*
X70682405Y-87516614D01*
X70571962Y-87382038D01*
X70565406Y-87376658D01*
X70645185Y-87311185D01*
X70724537Y-87214494D01*
X70783502Y-87104180D01*
X70819812Y-86984482D01*
X70832072Y-86860000D01*
X70829000Y-86645750D01*
X70670250Y-86487000D01*
X69596000Y-86487000D01*
X69596000Y-86507000D01*
X69342000Y-86507000D01*
X69342000Y-86487000D01*
X68267750Y-86487000D01*
X68109000Y-86645750D01*
X68105928Y-86860000D01*
X68118188Y-86984482D01*
X68154498Y-87104180D01*
X68213463Y-87214494D01*
X68292815Y-87311185D01*
X68372594Y-87376658D01*
X68366038Y-87382038D01*
X68330780Y-87425000D01*
X67386181Y-87425000D01*
X67361252Y-87342820D01*
X67358141Y-87337000D01*
X67361252Y-87331180D01*
X67397562Y-87211482D01*
X67409822Y-87087000D01*
X67406750Y-86772750D01*
X67248000Y-86614000D01*
X66198750Y-86614000D01*
X66198750Y-86634000D01*
X65944750Y-86634000D01*
X65944750Y-86614000D01*
X65924750Y-86614000D01*
X65924750Y-86360000D01*
X65944750Y-86360000D01*
X65944750Y-85410750D01*
X66198750Y-85410750D01*
X66198750Y-86360000D01*
X67248000Y-86360000D01*
X67406750Y-86201250D01*
X67409822Y-85887000D01*
X67407163Y-85860000D01*
X68105928Y-85860000D01*
X68109000Y-86074250D01*
X68267750Y-86233000D01*
X69342000Y-86233000D01*
X69342000Y-85383750D01*
X69596000Y-85383750D01*
X69596000Y-86233000D01*
X70670250Y-86233000D01*
X70829000Y-86074250D01*
X70832072Y-85860000D01*
X70819812Y-85735518D01*
X70783502Y-85615820D01*
X70724537Y-85505506D01*
X70645185Y-85408815D01*
X70548494Y-85329463D01*
X70438180Y-85270498D01*
X70318482Y-85234188D01*
X70194000Y-85221928D01*
X69754750Y-85225000D01*
X69596000Y-85383750D01*
X69342000Y-85383750D01*
X69183250Y-85225000D01*
X68744000Y-85221928D01*
X68619518Y-85234188D01*
X68499820Y-85270498D01*
X68389506Y-85329463D01*
X68292815Y-85408815D01*
X68213463Y-85505506D01*
X68154498Y-85615820D01*
X68118188Y-85735518D01*
X68105928Y-85860000D01*
X67407163Y-85860000D01*
X67397562Y-85762518D01*
X67361252Y-85642820D01*
X67302287Y-85532506D01*
X67222935Y-85435815D01*
X67126244Y-85356463D01*
X67015930Y-85297498D01*
X66896232Y-85261188D01*
X66771750Y-85248928D01*
X66357500Y-85252000D01*
X66198750Y-85410750D01*
X65944750Y-85410750D01*
X65786000Y-85252000D01*
X65371750Y-85248928D01*
X65247268Y-85261188D01*
X65127570Y-85297498D01*
X65017256Y-85356463D01*
X64971750Y-85393809D01*
X64926244Y-85356463D01*
X64815930Y-85297498D01*
X64696232Y-85261188D01*
X64571750Y-85248928D01*
X63171750Y-85248928D01*
X63047268Y-85261188D01*
X62927570Y-85297498D01*
X62817256Y-85356463D01*
X62720565Y-85435815D01*
X62641213Y-85532506D01*
X62606205Y-85598000D01*
X61523129Y-85598000D01*
X61427962Y-85482038D01*
X61293386Y-85371595D01*
X61139850Y-85289528D01*
X60973254Y-85238992D01*
X60800000Y-85221928D01*
X59850000Y-85221928D01*
X59676746Y-85238992D01*
X59510150Y-85289528D01*
X59356614Y-85371595D01*
X59222038Y-85482038D01*
X59111595Y-85616614D01*
X59029528Y-85770150D01*
X58978992Y-85936746D01*
X58961928Y-86110000D01*
X58961928Y-86610000D01*
X58978992Y-86783254D01*
X59029528Y-86949850D01*
X59111595Y-87103386D01*
X59222038Y-87237962D01*
X59228594Y-87243342D01*
X59148815Y-87308815D01*
X59069463Y-87405506D01*
X59010498Y-87515820D01*
X58974188Y-87635518D01*
X58961928Y-87760000D01*
X58965000Y-87974250D01*
X59123750Y-88133000D01*
X60198000Y-88133000D01*
X60198000Y-88113000D01*
X60452000Y-88113000D01*
X60452000Y-88133000D01*
X61526250Y-88133000D01*
X61685000Y-87974250D01*
X61688072Y-87760000D01*
X61675812Y-87635518D01*
X61639502Y-87515820D01*
X61580537Y-87405506D01*
X61501185Y-87308815D01*
X61421406Y-87243342D01*
X61427962Y-87237962D01*
X61523129Y-87122000D01*
X62082749Y-87122000D01*
X62082750Y-90010448D01*
X62079063Y-90047881D01*
X62093776Y-90197259D01*
X62137348Y-90340896D01*
X62208104Y-90473273D01*
X62223086Y-90491528D01*
X62303328Y-90589303D01*
X62332398Y-90613160D01*
X63335000Y-91615763D01*
X63335000Y-91853205D01*
X63302133Y-91893255D01*
X63263353Y-91765414D01*
X63213020Y-91671248D01*
X63186699Y-91622005D01*
X63153340Y-91581358D01*
X63083541Y-91496307D01*
X63052035Y-91470451D01*
X62588550Y-91006966D01*
X62562693Y-90975459D01*
X62436994Y-90872301D01*
X62293586Y-90795647D01*
X62137978Y-90748444D01*
X62016705Y-90736500D01*
X62016702Y-90736500D01*
X61976152Y-90732506D01*
X61935602Y-90736500D01*
X58042016Y-90736500D01*
X57998962Y-90684038D01*
X57992406Y-90678658D01*
X58072185Y-90613185D01*
X58151537Y-90516494D01*
X58210502Y-90406180D01*
X58246812Y-90286482D01*
X58259072Y-90162000D01*
X58256000Y-89947750D01*
X58097250Y-89789000D01*
X57023000Y-89789000D01*
X57023000Y-89809000D01*
X56896000Y-89809000D01*
X56896000Y-89515000D01*
X57023000Y-89515000D01*
X57023000Y-89535000D01*
X58097250Y-89535000D01*
X58256000Y-89376250D01*
X58259072Y-89162000D01*
X58246812Y-89037518D01*
X58210502Y-88917820D01*
X58151537Y-88807506D01*
X58112550Y-88760000D01*
X58961928Y-88760000D01*
X58974188Y-88884482D01*
X59010498Y-89004180D01*
X59069463Y-89114494D01*
X59148815Y-89211185D01*
X59245506Y-89290537D01*
X59355820Y-89349502D01*
X59475518Y-89385812D01*
X59600000Y-89398072D01*
X60039250Y-89395000D01*
X60198000Y-89236250D01*
X60198000Y-88387000D01*
X60452000Y-88387000D01*
X60452000Y-89236250D01*
X60610750Y-89395000D01*
X61050000Y-89398072D01*
X61174482Y-89385812D01*
X61294180Y-89349502D01*
X61404494Y-89290537D01*
X61501185Y-89211185D01*
X61580537Y-89114494D01*
X61639502Y-89004180D01*
X61675812Y-88884482D01*
X61688072Y-88760000D01*
X61685000Y-88545750D01*
X61526250Y-88387000D01*
X60452000Y-88387000D01*
X60198000Y-88387000D01*
X59123750Y-88387000D01*
X58965000Y-88545750D01*
X58961928Y-88760000D01*
X58112550Y-88760000D01*
X58072185Y-88710815D01*
X57975494Y-88631463D01*
X57865180Y-88572498D01*
X57745482Y-88536188D01*
X57621000Y-88523928D01*
X57181750Y-88527000D01*
X57023002Y-88685748D01*
X57023002Y-88527000D01*
X56896000Y-88527000D01*
X56896000Y-82931000D01*
X73533000Y-82931000D01*
X73533000Y-91821952D01*
G37*
%TD.AperFunction*%
D22*
X63998750Y-88060000D02*
X64018750Y-88060000D01*
X64018750Y-88314000D01*
X63998750Y-88314000D01*
X63998750Y-89263250D01*
X64135000Y-89399500D01*
X64135000Y-90260502D01*
X63606749Y-89732251D01*
X63606749Y-89401251D01*
X63744750Y-89263250D01*
X63744750Y-88314000D01*
X63724750Y-88314000D01*
X63724750Y-88060000D01*
X63744750Y-88060000D01*
X63744750Y-88040000D01*
X63998750Y-88040000D01*
X63998750Y-88060000D01*
%TA.AperFunction,Conductor*%
D23*
G36*
X63998750Y-88060000D02*
G01*
X64018750Y-88060000D01*
X64018750Y-88314000D01*
X63998750Y-88314000D01*
X63998750Y-89263250D01*
X64135000Y-89399500D01*
X64135000Y-90260502D01*
X63606749Y-89732251D01*
X63606749Y-89401251D01*
X63744750Y-89263250D01*
X63744750Y-88314000D01*
X63724750Y-88314000D01*
X63724750Y-88060000D01*
X63744750Y-88060000D01*
X63744750Y-88040000D01*
X63998750Y-88040000D01*
X63998750Y-88060000D01*
G37*
%TD.AperFunction*%
%TD*%
D22*
%TO.N,GND*%
X64060194Y-96894049D02*
X64086047Y-96925551D01*
X64150184Y-96978187D01*
X64211745Y-97028709D01*
X64339871Y-97097194D01*
X64355154Y-97105363D01*
X64510762Y-97152566D01*
X64632035Y-97164510D01*
X64632037Y-97164510D01*
X64672587Y-97168504D01*
X64713138Y-97164510D01*
X68800288Y-97164510D01*
X68840838Y-97168504D01*
X68881388Y-97164510D01*
X68881391Y-97164510D01*
X69002664Y-97152566D01*
X69158272Y-97105363D01*
X69208928Y-97078287D01*
X69208928Y-97385750D01*
X69221188Y-97510232D01*
X69221345Y-97510750D01*
X69221188Y-97511268D01*
X69208928Y-97635750D01*
X69208928Y-98185750D01*
X69221188Y-98310232D01*
X69221345Y-98310750D01*
X69221188Y-98311268D01*
X69208928Y-98435750D01*
X69208928Y-98985750D01*
X69221188Y-99110232D01*
X69221345Y-99110750D01*
X69221188Y-99111268D01*
X69208928Y-99235750D01*
X69208928Y-99785750D01*
X69221188Y-99910232D01*
X69221345Y-99910750D01*
X69221188Y-99911268D01*
X69208928Y-100035750D01*
X69208928Y-100585750D01*
X69221188Y-100710232D01*
X69221345Y-100710750D01*
X69221188Y-100711268D01*
X69208928Y-100835750D01*
X69208928Y-101385750D01*
X69221188Y-101510232D01*
X69221345Y-101510750D01*
X69221188Y-101511268D01*
X69208928Y-101635750D01*
X69208928Y-102185750D01*
X69221188Y-102310232D01*
X69221345Y-102310750D01*
X69221188Y-102311268D01*
X69208928Y-102435750D01*
X69208928Y-102985750D01*
X69212962Y-103026712D01*
X69172000Y-103022678D01*
X68622000Y-103022678D01*
X68497518Y-103034938D01*
X68496337Y-103035296D01*
X68382750Y-103025750D01*
X68290667Y-103117833D01*
X68279130Y-103124000D01*
X67914870Y-103124000D01*
X67903333Y-103117833D01*
X67811250Y-103025750D01*
X67697663Y-103035296D01*
X67696482Y-103034938D01*
X67572000Y-103022678D01*
X67022000Y-103022678D01*
X66897518Y-103034938D01*
X66897000Y-103035095D01*
X66896482Y-103034938D01*
X66772000Y-103022678D01*
X66222000Y-103022678D01*
X66097518Y-103034938D01*
X66097000Y-103035095D01*
X66096482Y-103034938D01*
X65972000Y-103022678D01*
X65422000Y-103022678D01*
X65297518Y-103034938D01*
X65297000Y-103035095D01*
X65296482Y-103034938D01*
X65172000Y-103022678D01*
X64622000Y-103022678D01*
X64497518Y-103034938D01*
X64497000Y-103035095D01*
X64496482Y-103034938D01*
X64372000Y-103022678D01*
X63822000Y-103022678D01*
X63697518Y-103034938D01*
X63697000Y-103035095D01*
X63696482Y-103034938D01*
X63572000Y-103022678D01*
X63022000Y-103022678D01*
X62897518Y-103034938D01*
X62897000Y-103035095D01*
X62896482Y-103034938D01*
X62772000Y-103022678D01*
X62222000Y-103022678D01*
X62097518Y-103034938D01*
X62096337Y-103035296D01*
X61982750Y-103025750D01*
X61890667Y-103117833D01*
X61879130Y-103124000D01*
X61824002Y-103124000D01*
X61824002Y-103025750D01*
X61722500Y-103025750D01*
X61722500Y-102723390D01*
X61726493Y-102682847D01*
X61722500Y-102642304D01*
X61722500Y-102642295D01*
X61710556Y-102521022D01*
X61663353Y-102365414D01*
X61586699Y-102222006D01*
X61586698Y-102222004D01*
X61509391Y-102127806D01*
X61483541Y-102096307D01*
X61452039Y-102070454D01*
X60737300Y-101355716D01*
X60711443Y-101324209D01*
X60585744Y-101221051D01*
X60585072Y-101220692D01*
X60585072Y-100835750D01*
X60572812Y-100711268D01*
X60572655Y-100710750D01*
X60572812Y-100710232D01*
X60585072Y-100585750D01*
X60585072Y-100035750D01*
X60572812Y-99911268D01*
X60572454Y-99910087D01*
X60582000Y-99796500D01*
X60489917Y-99704417D01*
X60477537Y-99681256D01*
X60398185Y-99584565D01*
X60325000Y-99524504D01*
X60325000Y-99496996D01*
X60398185Y-99436935D01*
X60477537Y-99340244D01*
X60489917Y-99317083D01*
X60582000Y-99225000D01*
X60572454Y-99111413D01*
X60572812Y-99110232D01*
X60585072Y-98985750D01*
X60585072Y-98600808D01*
X60585744Y-98600449D01*
X60711443Y-98497291D01*
X60737300Y-98465784D01*
X63052039Y-96151046D01*
X63083541Y-96125193D01*
X63161721Y-96029930D01*
X63177207Y-96011061D01*
X64060194Y-96894049D01*
%TA.AperFunction,Conductor*%
D23*
G36*
X64060194Y-96894049D02*
G01*
X64086047Y-96925551D01*
X64150184Y-96978187D01*
X64211745Y-97028709D01*
X64339871Y-97097194D01*
X64355154Y-97105363D01*
X64510762Y-97152566D01*
X64632035Y-97164510D01*
X64632037Y-97164510D01*
X64672587Y-97168504D01*
X64713138Y-97164510D01*
X68800288Y-97164510D01*
X68840838Y-97168504D01*
X68881388Y-97164510D01*
X68881391Y-97164510D01*
X69002664Y-97152566D01*
X69158272Y-97105363D01*
X69208928Y-97078287D01*
X69208928Y-97385750D01*
X69221188Y-97510232D01*
X69221345Y-97510750D01*
X69221188Y-97511268D01*
X69208928Y-97635750D01*
X69208928Y-98185750D01*
X69221188Y-98310232D01*
X69221345Y-98310750D01*
X69221188Y-98311268D01*
X69208928Y-98435750D01*
X69208928Y-98985750D01*
X69221188Y-99110232D01*
X69221345Y-99110750D01*
X69221188Y-99111268D01*
X69208928Y-99235750D01*
X69208928Y-99785750D01*
X69221188Y-99910232D01*
X69221345Y-99910750D01*
X69221188Y-99911268D01*
X69208928Y-100035750D01*
X69208928Y-100585750D01*
X69221188Y-100710232D01*
X69221345Y-100710750D01*
X69221188Y-100711268D01*
X69208928Y-100835750D01*
X69208928Y-101385750D01*
X69221188Y-101510232D01*
X69221345Y-101510750D01*
X69221188Y-101511268D01*
X69208928Y-101635750D01*
X69208928Y-102185750D01*
X69221188Y-102310232D01*
X69221345Y-102310750D01*
X69221188Y-102311268D01*
X69208928Y-102435750D01*
X69208928Y-102985750D01*
X69212962Y-103026712D01*
X69172000Y-103022678D01*
X68622000Y-103022678D01*
X68497518Y-103034938D01*
X68496337Y-103035296D01*
X68382750Y-103025750D01*
X68290667Y-103117833D01*
X68279130Y-103124000D01*
X67914870Y-103124000D01*
X67903333Y-103117833D01*
X67811250Y-103025750D01*
X67697663Y-103035296D01*
X67696482Y-103034938D01*
X67572000Y-103022678D01*
X67022000Y-103022678D01*
X66897518Y-103034938D01*
X66897000Y-103035095D01*
X66896482Y-103034938D01*
X66772000Y-103022678D01*
X66222000Y-103022678D01*
X66097518Y-103034938D01*
X66097000Y-103035095D01*
X66096482Y-103034938D01*
X65972000Y-103022678D01*
X65422000Y-103022678D01*
X65297518Y-103034938D01*
X65297000Y-103035095D01*
X65296482Y-103034938D01*
X65172000Y-103022678D01*
X64622000Y-103022678D01*
X64497518Y-103034938D01*
X64497000Y-103035095D01*
X64496482Y-103034938D01*
X64372000Y-103022678D01*
X63822000Y-103022678D01*
X63697518Y-103034938D01*
X63697000Y-103035095D01*
X63696482Y-103034938D01*
X63572000Y-103022678D01*
X63022000Y-103022678D01*
X62897518Y-103034938D01*
X62897000Y-103035095D01*
X62896482Y-103034938D01*
X62772000Y-103022678D01*
X62222000Y-103022678D01*
X62097518Y-103034938D01*
X62096337Y-103035296D01*
X61982750Y-103025750D01*
X61890667Y-103117833D01*
X61879130Y-103124000D01*
X61824002Y-103124000D01*
X61824002Y-103025750D01*
X61722500Y-103025750D01*
X61722500Y-102723390D01*
X61726493Y-102682847D01*
X61722500Y-102642304D01*
X61722500Y-102642295D01*
X61710556Y-102521022D01*
X61663353Y-102365414D01*
X61586699Y-102222006D01*
X61586698Y-102222004D01*
X61509391Y-102127806D01*
X61483541Y-102096307D01*
X61452039Y-102070454D01*
X60737300Y-101355716D01*
X60711443Y-101324209D01*
X60585744Y-101221051D01*
X60585072Y-101220692D01*
X60585072Y-100835750D01*
X60572812Y-100711268D01*
X60572655Y-100710750D01*
X60572812Y-100710232D01*
X60585072Y-100585750D01*
X60585072Y-100035750D01*
X60572812Y-99911268D01*
X60572454Y-99910087D01*
X60582000Y-99796500D01*
X60489917Y-99704417D01*
X60477537Y-99681256D01*
X60398185Y-99584565D01*
X60325000Y-99524504D01*
X60325000Y-99496996D01*
X60398185Y-99436935D01*
X60477537Y-99340244D01*
X60489917Y-99317083D01*
X60582000Y-99225000D01*
X60572454Y-99111413D01*
X60572812Y-99110232D01*
X60585072Y-98985750D01*
X60585072Y-98600808D01*
X60585744Y-98600449D01*
X60711443Y-98497291D01*
X60737300Y-98465784D01*
X63052039Y-96151046D01*
X63083541Y-96125193D01*
X63161721Y-96029930D01*
X63177207Y-96011061D01*
X64060194Y-96894049D01*
G37*
%TD.AperFunction*%
D22*
X68497518Y-94386562D02*
X68622000Y-94398822D01*
X69172000Y-94398822D01*
X69214552Y-94394631D01*
X69212000Y-94425000D01*
X69370750Y-94583750D01*
X69462366Y-94583750D01*
X69460594Y-94711354D01*
X69351664Y-94744397D01*
X69208255Y-94821051D01*
X69114056Y-94898358D01*
X69114053Y-94898361D01*
X69082557Y-94924209D01*
X69056709Y-94955706D01*
X68498905Y-95513510D01*
X65014521Y-95513510D01*
X63899832Y-94398822D01*
X64372000Y-94398822D01*
X64496482Y-94386562D01*
X64497000Y-94386405D01*
X64497518Y-94386562D01*
X64622000Y-94398822D01*
X65172000Y-94398822D01*
X65296482Y-94386562D01*
X65297000Y-94386405D01*
X65297518Y-94386562D01*
X65422000Y-94398822D01*
X65972000Y-94398822D01*
X66096482Y-94386562D01*
X66097000Y-94386405D01*
X66097518Y-94386562D01*
X66222000Y-94398822D01*
X66772000Y-94398822D01*
X66896482Y-94386562D01*
X66897000Y-94386405D01*
X66897518Y-94386562D01*
X67022000Y-94398822D01*
X67572000Y-94398822D01*
X67696482Y-94386562D01*
X67697000Y-94386405D01*
X67697518Y-94386562D01*
X67822000Y-94398822D01*
X68372000Y-94398822D01*
X68496482Y-94386562D01*
X68497000Y-94386405D01*
X68497518Y-94386562D01*
%TA.AperFunction,Conductor*%
D23*
G36*
X68497518Y-94386562D02*
G01*
X68622000Y-94398822D01*
X69172000Y-94398822D01*
X69214552Y-94394631D01*
X69212000Y-94425000D01*
X69370750Y-94583750D01*
X69462366Y-94583750D01*
X69460594Y-94711354D01*
X69351664Y-94744397D01*
X69208255Y-94821051D01*
X69114056Y-94898358D01*
X69114053Y-94898361D01*
X69082557Y-94924209D01*
X69056709Y-94955706D01*
X68498905Y-95513510D01*
X65014521Y-95513510D01*
X63899832Y-94398822D01*
X64372000Y-94398822D01*
X64496482Y-94386562D01*
X64497000Y-94386405D01*
X64497518Y-94386562D01*
X64622000Y-94398822D01*
X65172000Y-94398822D01*
X65296482Y-94386562D01*
X65297000Y-94386405D01*
X65297518Y-94386562D01*
X65422000Y-94398822D01*
X65972000Y-94398822D01*
X66096482Y-94386562D01*
X66097000Y-94386405D01*
X66097518Y-94386562D01*
X66222000Y-94398822D01*
X66772000Y-94398822D01*
X66896482Y-94386562D01*
X66897000Y-94386405D01*
X66897518Y-94386562D01*
X67022000Y-94398822D01*
X67572000Y-94398822D01*
X67696482Y-94386562D01*
X67697000Y-94386405D01*
X67697518Y-94386562D01*
X67822000Y-94398822D01*
X68372000Y-94398822D01*
X68496482Y-94386562D01*
X68497000Y-94386405D01*
X68497518Y-94386562D01*
G37*
%TD.AperFunction*%
%TD*%
D22*
%TO.N,GND*%
X45927651Y-80685216D02*
X45842737Y-80965139D01*
X45821250Y-81183300D01*
X45821250Y-82329199D01*
X45842737Y-82547360D01*
X45927651Y-82827283D01*
X46065544Y-83085263D01*
X46251116Y-83311384D01*
X46477236Y-83496956D01*
X46735216Y-83634849D01*
X47015139Y-83719763D01*
X47244000Y-83742304D01*
X47244000Y-84270196D01*
X47015140Y-84292737D01*
X46735217Y-84377651D01*
X46477237Y-84515544D01*
X46251117Y-84701116D01*
X46096373Y-84889671D01*
X46040656Y-84782616D01*
X45962373Y-84685057D01*
X45866561Y-84604646D01*
X45756902Y-84544471D01*
X45637611Y-84506846D01*
X45538000Y-84496250D01*
X45379250Y-84655000D01*
X45379250Y-86129250D01*
X45403250Y-86129250D01*
X45403250Y-86383250D01*
X45379250Y-86383250D01*
X45379250Y-86403250D01*
X45344322Y-86403250D01*
X45344322Y-85131250D01*
X45332062Y-85006768D01*
X45295752Y-84887070D01*
X45236787Y-84776756D01*
X45157435Y-84680065D01*
X45133250Y-84660217D01*
X45133250Y-84655000D01*
X44974500Y-84496250D01*
X44874889Y-84506846D01*
X44855516Y-84512956D01*
X44830732Y-84505438D01*
X44706250Y-84493178D01*
X44206250Y-84493178D01*
X44081768Y-84505438D01*
X44056250Y-84513179D01*
X44030732Y-84505438D01*
X43906250Y-84493178D01*
X43406250Y-84493178D01*
X43281768Y-84505438D01*
X43256250Y-84513179D01*
X43230732Y-84505438D01*
X43106250Y-84493178D01*
X42606250Y-84493178D01*
X42481768Y-84505438D01*
X42456250Y-84513179D01*
X42430732Y-84505438D01*
X42306250Y-84493178D01*
X41806250Y-84493178D01*
X41681768Y-84505438D01*
X41562070Y-84541748D01*
X41451756Y-84600713D01*
X41355065Y-84680065D01*
X41275713Y-84776756D01*
X41216748Y-84887070D01*
X41216004Y-84889521D01*
X41061384Y-84701116D01*
X40835264Y-84515544D01*
X40577284Y-84377651D01*
X40297361Y-84292737D01*
X40006250Y-84264065D01*
X39878000Y-84276697D01*
X39878000Y-83735803D01*
X40006250Y-83748435D01*
X40297360Y-83719763D01*
X40577283Y-83634849D01*
X40835263Y-83496956D01*
X41061384Y-83311384D01*
X41246956Y-83085264D01*
X41384849Y-82827284D01*
X41469763Y-82547361D01*
X41491250Y-82329200D01*
X41491250Y-81183300D01*
X41469763Y-80965139D01*
X41384849Y-80685216D01*
X41295470Y-80518000D01*
X46017030Y-80518000D01*
X45927651Y-80685216D01*
%TA.AperFunction,Conductor*%
D23*
G36*
X45927651Y-80685216D02*
G01*
X45842737Y-80965139D01*
X45821250Y-81183300D01*
X45821250Y-82329199D01*
X45842737Y-82547360D01*
X45927651Y-82827283D01*
X46065544Y-83085263D01*
X46251116Y-83311384D01*
X46477236Y-83496956D01*
X46735216Y-83634849D01*
X47015139Y-83719763D01*
X47244000Y-83742304D01*
X47244000Y-84270196D01*
X47015140Y-84292737D01*
X46735217Y-84377651D01*
X46477237Y-84515544D01*
X46251117Y-84701116D01*
X46096373Y-84889671D01*
X46040656Y-84782616D01*
X45962373Y-84685057D01*
X45866561Y-84604646D01*
X45756902Y-84544471D01*
X45637611Y-84506846D01*
X45538000Y-84496250D01*
X45379250Y-84655000D01*
X45379250Y-86129250D01*
X45403250Y-86129250D01*
X45403250Y-86383250D01*
X45379250Y-86383250D01*
X45379250Y-86403250D01*
X45344322Y-86403250D01*
X45344322Y-85131250D01*
X45332062Y-85006768D01*
X45295752Y-84887070D01*
X45236787Y-84776756D01*
X45157435Y-84680065D01*
X45133250Y-84660217D01*
X45133250Y-84655000D01*
X44974500Y-84496250D01*
X44874889Y-84506846D01*
X44855516Y-84512956D01*
X44830732Y-84505438D01*
X44706250Y-84493178D01*
X44206250Y-84493178D01*
X44081768Y-84505438D01*
X44056250Y-84513179D01*
X44030732Y-84505438D01*
X43906250Y-84493178D01*
X43406250Y-84493178D01*
X43281768Y-84505438D01*
X43256250Y-84513179D01*
X43230732Y-84505438D01*
X43106250Y-84493178D01*
X42606250Y-84493178D01*
X42481768Y-84505438D01*
X42456250Y-84513179D01*
X42430732Y-84505438D01*
X42306250Y-84493178D01*
X41806250Y-84493178D01*
X41681768Y-84505438D01*
X41562070Y-84541748D01*
X41451756Y-84600713D01*
X41355065Y-84680065D01*
X41275713Y-84776756D01*
X41216748Y-84887070D01*
X41216004Y-84889521D01*
X41061384Y-84701116D01*
X40835264Y-84515544D01*
X40577284Y-84377651D01*
X40297361Y-84292737D01*
X40006250Y-84264065D01*
X39878000Y-84276697D01*
X39878000Y-83735803D01*
X40006250Y-83748435D01*
X40297360Y-83719763D01*
X40577283Y-83634849D01*
X40835263Y-83496956D01*
X41061384Y-83311384D01*
X41246956Y-83085264D01*
X41384849Y-82827284D01*
X41469763Y-82547361D01*
X41491250Y-82329200D01*
X41491250Y-81183300D01*
X41469763Y-80965139D01*
X41384849Y-80685216D01*
X41295470Y-80518000D01*
X46017030Y-80518000D01*
X45927651Y-80685216D01*
G37*
%TD.AperFunction*%
%TD*%
M02*
